<svg width="151" height="50" viewBox="0 0 151 50" fill="none" xmlns="http://www.w3.org/2000/svg">
<g filter="url(#filter0_d_1_18)">
<rect width="150.865" height="45.9827" rx="17" fill="#62D732"/>
<rect x="1" y="1" width="148.865" height="43.9827" rx="16" stroke="#309C04" stroke-width="2"/>
</g>
<path d="M23.8945 22.0534C23.8945 21.0828 24.1045 20.2194 24.5245 19.4634C24.9445 18.6981 25.5278 18.1054 26.2745 17.6854C27.0305 17.2561 27.8845 17.0414 28.8365 17.0414C30.0032 17.0414 31.0018 17.3494 31.8325 17.9654C32.6632 18.5814 33.2185 19.4214 33.4985 20.4854H30.8665C30.6705 20.0748 30.3905 19.7621 30.0265 19.5474C29.6718 19.3328 29.2658 19.2254 28.8085 19.2254C28.0712 19.2254 27.4738 19.4821 27.0165 19.9954C26.5592 20.5088 26.3305 21.1948 26.3305 22.0534C26.3305 22.9121 26.5592 23.5981 27.0165 24.1114C27.4738 24.6248 28.0712 24.8814 28.8085 24.8814C29.2658 24.8814 29.6718 24.7741 30.0265 24.5594C30.3905 24.3448 30.6705 24.0321 30.8665 23.6214H33.4985C33.2185 24.6854 32.6632 25.5254 31.8325 26.1414C31.0018 26.7481 30.0032 27.0514 28.8365 27.0514C27.8845 27.0514 27.0305 26.8414 26.2745 26.4214C25.5278 25.9921 24.9445 25.3994 24.5245 24.6434C24.1045 23.8874 23.8945 23.0241 23.8945 22.0534ZM37.9606 27.0934C37.1952 27.0934 36.5046 26.9301 35.8886 26.6034C35.2819 26.2768 34.8012 25.8101 34.4466 25.2034C34.1012 24.5968 33.9286 23.8874 33.9286 23.0754C33.9286 22.2728 34.1059 21.5681 34.4606 20.9614C34.8152 20.3454 35.3006 19.8741 35.9166 19.5474C36.5326 19.2208 37.2232 19.0574 37.9886 19.0574C38.7539 19.0574 39.4446 19.2208 40.0606 19.5474C40.6766 19.8741 41.1619 20.3454 41.5166 20.9614C41.8712 21.5681 42.0486 22.2728 42.0486 23.0754C42.0486 23.8781 41.8666 24.5874 41.5026 25.2034C41.1479 25.8101 40.6579 26.2768 40.0326 26.6034C39.4166 26.9301 38.7259 27.0934 37.9606 27.0934ZM37.9606 25.0214C38.4179 25.0214 38.8052 24.8534 39.1226 24.5174C39.4492 24.1814 39.6126 23.7008 39.6126 23.0754C39.6126 22.4501 39.4539 21.9694 39.1366 21.6334C38.8286 21.2974 38.4459 21.1294 37.9886 21.1294C37.5219 21.1294 37.1346 21.2974 36.8266 21.6334C36.5186 21.9601 36.3646 22.4408 36.3646 23.0754C36.3646 23.7008 36.5139 24.1814 36.8126 24.5174C37.1206 24.8534 37.5032 25.0214 37.9606 25.0214ZM47.5186 19.0854C48.4333 19.0854 49.1613 19.3841 49.7026 19.9814C50.2533 20.5694 50.5286 21.3814 50.5286 22.4174V26.9814H48.1486V22.7394C48.1486 22.2168 48.0133 21.8108 47.7426 21.5214C47.472 21.2321 47.108 21.0874 46.6506 21.0874C46.1933 21.0874 45.8293 21.2321 45.5586 21.5214C45.288 21.8108 45.1526 22.2168 45.1526 22.7394V26.9814H42.7586V19.1694H45.1526V20.2054C45.3953 19.8601 45.722 19.5894 46.1326 19.3934C46.5433 19.1881 47.0053 19.0854 47.5186 19.0854ZM56.3922 19.0854C57.3069 19.0854 58.0349 19.3841 58.5762 19.9814C59.1269 20.5694 59.4022 21.3814 59.4022 22.4174V26.9814H57.0222V22.7394C57.0222 22.2168 56.8869 21.8108 56.6162 21.5214C56.3455 21.2321 55.9815 21.0874 55.5242 21.0874C55.0669 21.0874 54.7029 21.2321 54.4322 21.5214C54.1615 21.8108 54.0262 22.2168 54.0262 22.7394V26.9814H51.6322V19.1694H54.0262V20.2054C54.2689 19.8601 54.5955 19.5894 55.0062 19.3934C55.4169 19.1881 55.8789 19.0854 56.3922 19.0854ZM67.8698 22.9494C67.8698 23.1734 67.8558 23.4068 67.8278 23.6494H62.4098C62.4471 24.1348 62.6011 24.5081 62.8718 24.7694C63.1518 25.0214 63.4925 25.1474 63.8938 25.1474C64.4911 25.1474 64.9065 24.8954 65.1398 24.3914H67.6878C67.5571 24.9048 67.3191 25.3668 66.9738 25.7774C66.6378 26.1881 66.2131 26.5101 65.6998 26.7434C65.1865 26.9768 64.6125 27.0934 63.9778 27.0934C63.2125 27.0934 62.5311 26.9301 61.9338 26.6034C61.3365 26.2768 60.8698 25.8101 60.5338 25.2034C60.1978 24.5968 60.0298 23.8874 60.0298 23.0754C60.0298 22.2634 60.1931 21.5541 60.5198 20.9474C60.8558 20.3408 61.3225 19.8741 61.9198 19.5474C62.5171 19.2208 63.2031 19.0574 63.9778 19.0574C64.7338 19.0574 65.4058 19.2161 65.9938 19.5334C66.5818 19.8508 67.0391 20.3034 67.3658 20.8914C67.7018 21.4794 67.8698 22.1654 67.8698 22.9494ZM65.4198 22.3194C65.4198 21.9088 65.2798 21.5821 64.9998 21.3394C64.7198 21.0968 64.3698 20.9754 63.9498 20.9754C63.5485 20.9754 63.2078 21.0921 62.9278 21.3254C62.6571 21.5588 62.4891 21.8901 62.4238 22.3194H65.4198ZM68.0968 23.0754C68.0968 22.2634 68.2601 21.5541 68.5868 20.9474C68.9228 20.3408 69.3848 19.8741 69.9728 19.5474C70.5701 19.2208 71.2514 19.0574 72.0168 19.0574C72.9968 19.0574 73.8134 19.3141 74.4668 19.8274C75.1294 20.3408 75.5634 21.0641 75.7688 21.9974H73.2208C73.0061 21.4001 72.5908 21.1014 71.9748 21.1014C71.5361 21.1014 71.1861 21.2741 70.9248 21.6194C70.6634 21.9554 70.5328 22.4408 70.5328 23.0754C70.5328 23.7101 70.6634 24.2001 70.9248 24.5454C71.1861 24.8814 71.5361 25.0494 71.9748 25.0494C72.5908 25.0494 73.0061 24.7508 73.2208 24.1534H75.7688C75.5634 25.0681 75.1294 25.7868 74.4668 26.3094C73.8041 26.8321 72.9874 27.0934 72.0168 27.0934C71.2514 27.0934 70.5701 26.9301 69.9728 26.6034C69.3848 26.2768 68.9228 25.8101 68.5868 25.2034C68.2601 24.5968 68.0968 23.8874 68.0968 23.0754ZM80.8433 24.9514V26.9814H79.6253C78.7573 26.9814 78.0807 26.7714 77.5953 26.3514C77.11 25.9221 76.8673 25.2268 76.8673 24.2654V21.1574H75.9153V19.1694H76.8673V17.2654H79.2613V19.1694H80.8293V21.1574H79.2613V24.2934C79.2613 24.5268 79.3173 24.6948 79.4293 24.7974C79.5413 24.9001 79.728 24.9514 79.9893 24.9514H80.8433ZM97.5476 17.1534L94.9856 26.9814H92.0876L90.5196 20.5134L88.8956 26.9814H85.9976L83.5056 17.1534H86.0676L87.4816 24.3074L89.2316 17.1534H91.8636L93.5436 24.3074L94.9716 17.1534H97.5476ZM97.7122 23.0614C97.7122 22.2588 97.8616 21.5541 98.1602 20.9474C98.4682 20.3408 98.8836 19.8741 99.4062 19.5474C99.9289 19.2208 100.512 19.0574 101.156 19.0574C101.707 19.0574 102.188 19.1694 102.598 19.3934C103.018 19.6174 103.34 19.9114 103.564 20.2754V19.1694H105.958V26.9814H103.564V25.8754C103.331 26.2394 103.004 26.5334 102.584 26.7574C102.174 26.9814 101.693 27.0934 101.142 27.0934C100.508 27.0934 99.9289 26.9301 99.4062 26.6034C98.8836 26.2674 98.4682 25.7961 98.1602 25.1894C97.8616 24.5734 97.7122 23.8641 97.7122 23.0614ZM103.564 23.0754C103.564 22.4781 103.396 22.0068 103.06 21.6614C102.734 21.3161 102.332 21.1434 101.856 21.1434C101.38 21.1434 100.974 21.3161 100.638 21.6614C100.312 21.9974 100.148 22.4641 100.148 23.0614C100.148 23.6588 100.312 24.1348 100.638 24.4894C100.974 24.8348 101.38 25.0074 101.856 25.0074C102.332 25.0074 102.734 24.8348 103.06 24.4894C103.396 24.1441 103.564 23.6728 103.564 23.0754ZM109.524 16.6214V26.9814H107.13V16.6214H109.524ZM113.093 16.6214V26.9814H110.699V16.6214H113.093ZM121.632 22.9494C121.632 23.1734 121.618 23.4068 121.59 23.6494H116.172C116.209 24.1348 116.363 24.5081 116.634 24.7694C116.914 25.0214 117.255 25.1474 117.656 25.1474C118.253 25.1474 118.669 24.8954 118.902 24.3914H121.45C121.319 24.9048 121.081 25.3668 120.736 25.7774C120.4 26.1881 119.975 26.5101 119.462 26.7434C118.949 26.9768 118.375 27.0934 117.74 27.0934C116.975 27.0934 116.293 26.9301 115.696 26.6034C115.099 26.2768 114.632 25.8101 114.296 25.2034C113.96 24.5968 113.792 23.8874 113.792 23.0754C113.792 22.2634 113.955 21.5541 114.282 20.9474C114.618 20.3408 115.085 19.8741 115.682 19.5474C116.279 19.2208 116.965 19.0574 117.74 19.0574C118.496 19.0574 119.168 19.2161 119.756 19.5334C120.344 19.8508 120.801 20.3034 121.128 20.8914C121.464 21.4794 121.632 22.1654 121.632 22.9494ZM119.182 22.3194C119.182 21.9088 119.042 21.5821 118.762 21.3394C118.482 21.0968 118.132 20.9754 117.712 20.9754C117.311 20.9754 116.97 21.0921 116.69 21.3254C116.419 21.5588 116.251 21.8901 116.186 22.3194H119.182ZM126.689 24.9514V26.9814H125.471C124.603 26.9814 123.926 26.7714 123.441 26.3514C122.956 25.9221 122.713 25.2268 122.713 24.2654V21.1574H121.761V19.1694H122.713V17.2654H125.107V19.1694H126.675V21.1574H125.107V24.2934C125.107 24.5268 125.163 24.6948 125.275 24.7974C125.387 24.9001 125.574 24.9514 125.835 24.9514H126.689Z" fill="white"/>
<defs>
<filter id="filter0_d_1_18" x="0" y="0" width="150.865" height="49.9827" filterUnits="userSpaceOnUse" color-interpolation-filters="sRGB">
<feFlood flood-opacity="0" result="BackgroundImageFix"/>
<feColorMatrix in="SourceAlpha" type="matrix" values="0 0 0 0 0 0 0 0 0 0 0 0 0 0 0 0 0 0 127 0" result="hardAlpha"/>
<feOffset dy="4"/>
<feComposite in2="hardAlpha" operator="out"/>
<feColorMatrix type="matrix" values="0 0 0 0 0.188235 0 0 0 0 0.611765 0 0 0 0 0.0156863 0 0 0 1 0"/>
<feBlend mode="normal" in2="BackgroundImageFix" result="effect1_dropShadow_1_18"/>
<feBlend mode="normal" in="SourceGraphic" in2="effect1_dropShadow_1_18" result="shape"/>
</filter>
</defs>
</svg>
