<svg width="149" height="28" viewBox="0 0 149 28" fill="none" xmlns="http://www.w3.org/2000/svg">
<path d="M3.45001 26.13C3.35001 26.13 3.26001 26.12 3.18001 26.1C3.10001 26.1 3.03001 26.09 2.97001 26.07H1.62001L0.300006 25.74L0.180006 25.53C0.160006 25.53 0.150006 25.42 0.150006 25.2C0.150006 25.06 0.150006 24.93 0.150006 24.81C0.150006 24.69 0.140006 24.59 0.120006 24.51L0.0900061 23.13C0.0700061 22.97 0.0600061 22.79 0.0600061 22.59C0.0800061 22.37 0.0800061 22.11 0.0600061 21.81L6.13928e-06 19.53C6.13928e-06 19.27 6.13928e-06 18.97 6.13928e-06 18.63C0.0200061 18.29 0.0400061 17.9 0.0600061 17.46L0.0900061 16.47C0.110006 16.15 0.120006 15.73 0.120006 15.21C0.140006 14.69 0.150006 14.07 0.150006 13.35V12.75C0.110006 12.67 0.0900061 12.56 0.0900061 12.42L0.0600061 12.21C0.0600061 11.71 0.0900061 11.19 0.150006 10.65C0.170006 10.31 0.180006 9.98999 0.180006 9.68999C0.200006 9.38999 0.210006 9.09999 0.210006 8.81999L0.180006 7.97999C0.160006 7.87999 0.150006 7.76999 0.150006 7.64999C0.150006 7.50999 0.150006 7.36999 0.150006 7.22999C0.150006 7.18999 0.140006 7.15999 0.120006 7.13999C0.0800062 7.09999 0.0600061 7.05999 0.0600061 7.01999C0.0600061 6.81999 0.140006 6.64999 0.300006 6.50998C0.460006 6.36999 0.660006 6.26999 0.900006 6.20999C1.06001 6.16999 1.23001 6.13999 1.41001 6.11999C1.61001 6.07999 1.84001 6.05999 2.10001 6.05999H8.25001C8.27001 6.05999 8.30001 6.07999 8.34001 6.11999L8.46001 6.20999C8.64001 6.38999 8.84001 6.65999 9.06001 7.01999C9.12001 7.13999 9.20001 7.27999 9.30001 7.43999C9.40001 7.57999 9.58001 7.79999 9.84001 8.09999C9.92001 8.25999 9.98001 8.47999 10.02 8.75999C10.08 9.01999 10.21 9.28998 10.41 9.56998L11.1 10.5C11.18 10.64 11.26 10.82 11.34 11.04C11.42 11.24 11.52 11.48 11.64 11.76C11.68 11.84 11.71 11.92 11.73 12C11.77 12.08 11.81 12.16 11.85 12.24L12.03 12.72C12.05 12.84 12.1 12.94 12.18 13.02C12.2 13.06 12.21 13.09 12.21 13.11C12.23 13.13 12.24 13.15 12.24 13.17C12.32 13.33 12.48 13.55 12.72 13.83C12.98 14.09 13.15 14.22 13.23 14.22C13.33 14.22 13.41 14.09 13.47 13.83C13.55 13.55 13.62 13.33 13.68 13.17C13.7 13.15 13.72 13.1 13.74 13.02C13.76 12.98 13.78 12.94 13.8 12.9C13.82 12.84 13.85 12.77 13.89 12.69L14.34 11.7L15.54 9.17999L16.05 8.09999C16.09 8.01999 16.12 7.94999 16.14 7.88999C16.16 7.80998 16.18 7.73999 16.2 7.67999C16.24 7.57999 16.27 7.51999 16.29 7.49999C16.33 7.39999 16.39 7.27999 16.47 7.13999C16.57 6.97999 16.69 6.78999 16.83 6.56999C16.93 6.40999 17.02 6.28999 17.1 6.20999C17.14 6.18999 17.18 6.15999 17.22 6.11999C17.26 6.07999 17.29 6.05999 17.31 6.05999H26.43C26.47 6.05999 26.52 6.20999 26.58 6.50998L26.67 9.41999C26.69 9.83999 26.7 10.38 26.7 11.04C26.72 11.68 26.73 12.45 26.73 13.35V15.06C26.73 15.5 26.71 16 26.67 16.56C26.65 17.1 26.62 17.59 26.58 18.03C26.56 18.47 26.54 18.77 26.52 18.93L26.46 19.53V20.55C26.48 20.69 26.49 20.87 26.49 21.09C26.49 21.29 26.49 21.53 26.49 21.81C26.49 22.39 26.49 22.9 26.49 23.34C26.51 23.78 26.54 24.11 26.58 24.33V25.53L26.49 25.74L25.17 26.07H23.82C23.74 26.09 23.66 26.1 23.58 26.1C23.5 26.12 23.41 26.13 23.31 26.13C23.13 26.13 22.92 26.12 22.68 26.1C22.44 26.1 22.16 26.09 21.84 26.07L21.09 26.04C20.95 26.02 20.79 26 20.61 25.98C20.43 25.96 20.21 25.95 19.95 25.95L18.81 25.86C18.77 25.86 18.74 25.87 18.72 25.89H18.48C18.4 25.89 18.34 25.78 18.3 25.56C18.18 25.2 18.12 24.53 18.12 23.55C18.12 23.23 18.12 22.95 18.12 22.71C18.12 22.47 18.11 22.26 18.09 22.08L18.06 20.46C18.04 20.28 18.03 20.06 18.03 19.8C18.03 19.54 18.03 19.25 18.03 18.93C18.03 18.77 17.96 18.69 17.82 18.69C17.74 18.69 17.66 18.79 17.58 18.99L17.25 19.77L16.98 20.52C16.94 20.64 16.9 20.76 16.86 20.88C16.82 21 16.77 21.11 16.71 21.21L16.56 21.57C16.4 21.97 16.17 22.43 15.87 22.95C15.59 23.45 15.23 23.86 14.79 24.18C14.57 24.32 14.36 24.39 14.16 24.39H13.71C13.61 24.39 13.51 24.39 13.41 24.39C13.31 24.37 13.22 24.35 13.14 24.33H11.88C11.48 23.69 10.99 23.03 10.41 22.35C9.85001 21.65 9.40001 20.92 9.06001 20.16L8.31001 19.08C8.23001 18.96 8.17001 18.87 8.13001 18.81C8.11001 18.73 8.09001 18.69 8.07001 18.69C7.93001 18.69 7.86001 18.77 7.86001 18.93V20.31C7.86001 21.69 7.84001 22.81 7.80001 23.67C7.76001 24.51 7.69001 25.13 7.59001 25.53C7.57001 25.77 7.52001 25.89 7.44001 25.89H7.23001L7.08001 25.86C6.74001 25.88 6.43001 25.9 6.15001 25.92C5.89001 25.94 5.66001 25.96 5.46001 25.98C5.22001 26 4.95001 26.03 4.65001 26.07C4.37001 26.11 3.97001 26.13 3.45001 26.13ZM31.5652 5.87999L31.3852 5.78999C31.3852 5.74999 31.3652 5.72999 31.3252 5.72999C31.2652 5.72999 31.2252 5.73999 31.2052 5.75999C31.1852 5.77999 31.1452 5.78999 31.0852 5.78999L30.8152 5.84999L30.6052 5.78999C30.5452 5.78999 30.5052 5.77999 30.4852 5.75999C30.4652 5.73999 30.4252 5.72999 30.3652 5.72999L29.6752 5.63999L29.4652 5.54998H29.3152C29.3152 5.58999 29.2952 5.60999 29.2552 5.60999C29.1152 5.60999 29.0252 5.59999 28.9852 5.57999C28.9652 5.55999 28.9152 5.54998 28.8352 5.54998C28.6752 5.44998 28.5652 5.28999 28.5052 5.06999C28.4852 5.02999 28.4752 4.98999 28.4752 4.94999C28.4752 4.88998 28.4652 4.84998 28.4452 4.82999C28.4252 4.80999 28.4152 4.78999 28.4152 4.76999C28.4152 4.72999 28.4052 4.69999 28.3852 4.67999V1.82999C28.4052 1.74999 28.4152 1.62999 28.4152 1.46999V0.689985C28.4152 0.429986 28.3952 0.249986 28.3552 0.149985V0.0899854C28.3552 0.0699856 28.4452 0.0499859 28.6252 0.0299861C28.8052 0.00998521 28.9752 -1.52588e-05 29.1352 -1.52588e-05C29.2952 -1.52588e-05 29.3952 -1.52588e-05 29.4352 -1.52588e-05C29.4952 -1.52588e-05 29.5352 0.00998521 29.5552 0.0299861H29.9752L30.5752 0.0899854L31.1452 0.269985C31.2852 0.289986 31.5452 0.319986 31.9252 0.359985C32.3052 0.399985 32.5352 0.419985 32.6152 0.419985C32.7152 0.419985 32.9052 0.449985 33.1852 0.509985C33.4852 0.569986 33.6752 0.589985 33.7552 0.569985C33.8552 0.549985 33.9552 0.589985 34.0552 0.689985C34.1552 0.769985 34.2452 0.809985 34.3252 0.809985C34.6852 0.749986 35.0552 0.799986 35.4352 0.959985C35.6552 1.03999 35.8452 1.10999 36.0052 1.16999C36.1652 1.20999 36.2552 1.30999 36.2752 1.46999L36.3052 2.39999C36.3252 2.97999 36.3652 3.45999 36.4252 3.83999C36.5052 4.19999 36.5052 4.69999 36.4252 5.33999L36.2152 5.54998L33.6652 5.78999C33.5052 5.78999 33.2852 5.79999 33.0052 5.81998C32.7452 5.81998 32.5852 5.82999 32.5252 5.84999C32.4452 5.86999 32.3652 5.87999 32.2852 5.87999C32.2052 5.87999 32.1152 5.87999 32.0152 5.87999H31.5652ZM34.8052 26.31L34.0852 26.22L32.7052 26.07L32.2852 26.1H31.2352C31.2152 26.02 31.1552 25.98 31.0552 25.98L30.6352 26.01C30.4952 26.03 30.3552 26.05 30.2152 26.07C30.0952 26.09 30.0052 26.1 29.9452 26.1C29.9052 26.06 29.8352 26.03 29.7352 26.01H29.5852C29.5852 25.99 29.5652 25.98 29.5252 25.98L29.4352 26.01L29.4052 26.04C29.1252 26.04 28.9352 25.96 28.8352 25.8C28.7552 25.66 28.6952 25.47 28.6552 25.23C28.6152 24.97 28.5952 24.59 28.5952 24.09C28.6152 23.95 28.6152 23.79 28.5952 23.61C28.5952 23.43 28.5752 23.14 28.5352 22.74L28.4452 21.51V13.02C28.4452 12.68 28.4352 12.35 28.4152 12.03C28.4152 11.71 28.3952 11.32 28.3552 10.86C28.3352 10.68 28.3052 10.52 28.2652 10.38C28.2452 10.36 28.2352 10.29 28.2352 10.17C28.2752 9.36999 28.4452 8.83999 28.7452 8.57999C29.0652 8.29999 29.6652 8.15999 30.5452 8.15999C30.5452 8.15999 30.6052 8.13999 30.7252 8.09999C30.7852 8.07999 30.8552 8.06999 30.9352 8.06999H30.9652C30.9852 8.06999 31.0052 8.07999 31.0252 8.09999C31.2052 8.09999 31.3152 8.11999 31.3552 8.15999H31.4752C31.5552 8.15999 31.6252 8.12999 31.6852 8.06999L33.9352 8.09999C34.0152 8.09999 34.1052 8.09999 34.2052 8.09999C34.3052 8.07999 34.4252 8.05999 34.5652 8.03998C34.6852 8.01999 34.9452 8.00999 35.3452 8.00999C36.2652 8.00999 36.7252 8.16999 36.7252 8.48999V13.11C36.7252 13.79 36.7152 14.55 36.6952 15.39C36.6752 16.23 36.6552 17.02 36.6352 17.76C36.6152 18.5 36.5852 19.08 36.5452 19.5L36.4552 20.73C36.4152 21.41 36.3852 22 36.3652 22.5C36.3452 23 36.3252 23.41 36.3052 23.73C36.2852 23.75 36.2752 23.8 36.2752 23.88C36.2752 23.94 36.2752 24.11 36.2752 24.39C36.2752 24.93 36.2052 25.37 36.0652 25.71C35.9252 26.03 35.7352 26.19 35.4952 26.19L34.8052 26.31ZM54.7184 26.25C54.2184 26.25 53.7184 26.24 53.2184 26.22C52.7384 26.22 52.2484 26.21 51.7484 26.19C50.4684 26.17 49.6584 25.92 49.3184 25.44C49.2984 25.34 49.2784 25.18 49.2584 24.96C49.2384 24.72 49.2284 24.44 49.2284 24.12C49.2284 23.36 49.2284 22.78 49.2284 22.38C49.2484 21.98 49.2584 21.53 49.2584 21.03V20.46C49.2584 20.28 49.2584 20.05 49.2584 19.77C49.2584 19.47 49.2684 19.1 49.2884 18.66C49.3284 17.9 49.3284 17.19 49.2884 16.53C49.2484 15.85 49.2584 15.24 49.3184 14.7C49.4184 13.88 49.2884 13.3 48.9284 12.96C48.5684 12.62 48.0984 12.62 47.5184 12.96C47.3184 13.04 47.1684 13.15 47.0684 13.29C46.9684 13.43 46.8984 13.58 46.8584 13.74V14.01C46.8584 13.97 46.8584 13.94 46.8584 13.92C46.8784 13.9 46.8884 13.88 46.8884 13.86V14.34H46.8584V25.65C46.8384 25.69 46.8284 25.75 46.8284 25.83C46.8084 25.89 46.7484 25.92 46.6484 25.92C46.6084 25.92 46.5784 25.93 46.5584 25.95C46.5384 25.97 46.5184 25.98 46.4984 25.98C46.4784 25.98 46.4484 25.99 46.4084 26.01C46.0684 26.01 45.7284 26.02 45.3884 26.04C45.0684 26.06 44.7584 26.09 44.4584 26.13H42.4484C41.6484 26.13 40.9784 26.1 40.4384 26.04C39.9184 26 39.4284 25.9 38.9684 25.74C38.8884 25.74 38.8184 25.69 38.7584 25.59C38.6984 25.45 38.6684 25.25 38.6684 24.99C38.6284 23.81 38.5784 22.8 38.5184 21.96C38.4584 21.1 38.4084 20.36 38.3684 19.74C38.3084 18.98 38.2684 18.04 38.2484 16.92C38.2284 15.78 38.2184 14.64 38.2184 13.5V12.66L38.2484 11.34L38.3084 10.14L38.3684 9.32999C38.3684 9.26999 38.3684 9.17999 38.3684 9.05999C38.3684 8.93999 38.3784 8.84999 38.3984 8.78999C38.3984 8.72999 38.4284 8.69999 38.4884 8.69999C38.6484 8.69999 38.8084 8.64999 38.9684 8.54999C38.9884 8.54999 39.0184 8.54999 39.0584 8.54999C39.1184 8.54999 39.1784 8.53999 39.2384 8.51999C39.3784 8.51999 39.4784 8.52999 39.5384 8.54999H44.3984C44.5584 8.54999 44.6984 8.54999 44.8184 8.54999C44.9584 8.54999 45.0684 8.55999 45.1484 8.57999L45.9884 8.60999C46.3084 8.62999 46.5284 8.77999 46.6484 9.05999C46.7884 9.31999 46.8584 9.61999 46.8584 9.95999L46.8884 10.05V10.44C47.5684 9.67999 48.3784 9.15999 49.3184 8.87999C50.2584 8.57999 51.1884 8.42999 52.1084 8.42999C53.6884 8.42999 54.8584 8.82999 55.6184 9.62999C56.3784 10.43 56.8284 11.41 56.9684 12.57C57.0284 13.03 57.0784 13.61 57.1184 14.31C57.1784 15.01 57.2084 15.91 57.2084 17.01C57.2084 17.67 57.1984 18.35 57.1784 19.05C57.1584 19.73 57.1284 20.45 57.0884 21.21C57.0884 21.31 57.0684 21.45 57.0284 21.63C56.9884 21.81 56.9684 22.01 56.9684 22.23C56.9684 22.59 56.9584 22.98 56.9384 23.4C56.9384 23.82 56.9384 24.28 56.9384 24.78C56.9384 24.9 56.9384 25.01 56.9384 25.11C56.9384 25.21 56.9484 25.28 56.9684 25.32C56.9684 25.42 56.9684 25.52 56.9684 25.62C56.9884 25.72 56.9984 25.81 56.9984 25.89C56.9984 26.13 56.7284 26.25 56.1884 26.25H54.7184ZM67.7562 26.46C67.0162 26.5 66.3762 26.53 65.8362 26.55C65.3162 26.59 64.8162 26.57 64.3362 26.49C63.8762 26.43 63.3762 26.29 62.8362 26.07C61.5762 25.53 60.6562 24.79 60.0762 23.85C59.5162 22.91 59.2162 21.62 59.1762 19.98H59.2062C59.2262 19.28 59.2362 18.56 59.2362 17.82C59.2562 17.06 59.2762 16.37 59.2962 15.75C59.3162 15.11 59.3262 14.66 59.3262 14.4H58.3062C58.0062 14.4 57.8062 14.23 57.7062 13.89C57.6262 13.53 57.5862 13.07 57.5862 12.51C57.6062 11.95 57.6162 11.36 57.6162 10.74V10.35C57.6562 10.19 57.6762 10.06 57.6762 9.95999C57.6762 9.85999 57.6762 9.76999 57.6762 9.68999V9.08999L57.7062 8.84999L57.8262 8.72998L58.0662 8.75999H58.8762C59.1762 8.75999 59.3162 8.75999 59.2962 8.75999C59.2762 8.75999 59.1962 8.75999 59.0562 8.75999C58.9362 8.73999 58.8462 8.72998 58.7862 8.72998H59.2962L59.3862 5.12998C59.4262 5.02998 59.4262 4.90999 59.3862 4.76999C59.3462 4.62999 59.3562 4.50999 59.4162 4.40999C59.4962 4.28999 59.7062 4.22999 60.0462 4.22999H63.5262C63.6662 4.24999 63.8262 4.25999 64.0062 4.25999C64.1862 4.25999 64.3962 4.25999 64.6362 4.25999H65.3862C65.4862 4.21999 65.5562 4.19999 65.5962 4.19999C65.6562 4.19999 65.7162 4.19999 65.7762 4.19999C65.8562 4.17999 65.9262 4.16998 65.9862 4.16998C66.0462 4.14998 66.1062 4.13999 66.1662 4.13999C66.7662 4.11999 67.0662 4.55999 67.0662 5.45999C67.0662 6.03999 67.0462 6.60999 67.0062 7.16999C66.9662 7.70999 66.9262 8.20999 66.8862 8.66999H67.9362C68.0362 8.66999 68.1462 8.66999 68.2662 8.66999C68.3862 8.66999 68.4862 8.67999 68.5662 8.69999L69.2862 8.72998L69.3762 8.78999C69.4162 8.80999 69.4362 8.83999 69.4362 8.87999V13.77C69.4362 13.91 69.3462 14.05 69.1662 14.19C69.0062 14.31 68.8062 14.39 68.5662 14.43C68.2462 14.35 68.0562 14.3 67.9962 14.28C67.9362 14.24 67.8562 14.22 67.7562 14.22H66.7362V15.18C66.7362 16.36 66.7362 17.18 66.7362 17.64C66.7362 18.1 66.7462 18.35 66.7662 18.39V19.23H66.7962C66.8762 20.09 67.0562 20.63 67.3362 20.85C67.6362 21.05 68.2262 21.08 69.1062 20.94C69.3862 21.04 69.5262 21.43 69.5262 22.11C69.5262 22.21 69.5262 22.33 69.5262 22.47C69.5262 22.61 69.5262 22.86 69.5262 23.22C69.5462 23.58 69.5662 24.17 69.5862 24.99C69.5462 25.11 69.5362 25.29 69.5562 25.53L69.5262 25.98C69.4462 25.98 69.3862 26 69.3462 26.04L69.1962 26.22C69.1562 26.26 69.1262 26.28 69.1062 26.28C69.0262 26.28 68.9162 26.29 68.7762 26.31C68.6362 26.35 68.4562 26.39 68.2362 26.43L67.7562 26.46ZM81.6424 25.98C81.5424 25.98 81.4524 25.97 81.3724 25.95C81.2924 25.95 81.2124 25.95 81.1324 25.95H79.7824L78.4624 25.62L78.4024 25.41C78.3624 25.41 78.3424 25.31 78.3424 25.11C78.3224 24.77 78.3024 24.43 78.2824 24.09C78.2824 23.75 78.2824 23.39 78.2824 23.01C78.2824 22.73 78.2724 22.48 78.2524 22.26C78.2524 22.04 78.2424 21.86 78.2224 21.72C78.2224 21.42 78.2224 21.16 78.2224 20.94C78.2224 20.72 78.2124 20.54 78.1924 20.4V19.38C78.0924 18.48 78.0224 17.48 77.9824 16.38C77.9624 15.28 77.9624 14.23 77.9824 13.23L78.0424 10.2C78.0624 10.04 78.0724 9.81999 78.0724 9.53999C78.0724 9.25999 78.0724 8.95999 78.0724 8.63999C78.0724 8.27999 78.0724 7.96999 78.0724 7.70999C78.0724 7.44999 78.0624 7.24999 78.0424 7.10999C77.9824 6.64999 78.0824 6.33999 78.3424 6.17999C78.6024 6.01999 78.9724 5.93999 79.4524 5.93999C79.7124 5.93999 79.9024 5.93999 80.0224 5.93999C80.1624 5.91999 80.3224 5.90999 80.5024 5.90999C80.7024 5.88999 81.0024 5.87999 81.4024 5.87999L82.0924 5.84999C82.6524 5.80999 83.1124 5.77999 83.4724 5.75999C83.8524 5.71999 84.1124 5.69999 84.2524 5.69999C84.5524 5.69999 84.8024 5.69999 85.0024 5.69999C85.2024 5.69999 85.3624 5.74999 85.4824 5.84999C85.5624 5.90999 85.6824 6.04999 85.8424 6.26999C86.0224 6.48999 86.1324 6.62999 86.1724 6.68999C86.3124 6.84999 86.3924 6.92998 86.4124 6.92998C86.4324 6.90999 86.5024 6.98999 86.6224 7.16999C86.8024 7.42999 86.9524 7.67999 87.0724 7.91999C87.2124 8.13999 87.3424 8.30999 87.4624 8.42999L91.5124 12.3L92.5024 13.2C92.5024 12.94 92.5024 12.7 92.5024 12.48C92.5024 12.24 92.5124 12.05 92.5324 11.91V9.17999L92.6224 7.07999C92.6424 6.97999 92.6524 6.90999 92.6524 6.86999C92.6724 6.80999 92.6824 6.76999 92.6824 6.74999C92.6824 6.70999 92.7124 6.65999 92.7724 6.59999C92.7924 6.57999 92.8224 6.56999 92.8624 6.56999C93.1024 6.32999 93.3424 6.17999 93.5824 6.11999C93.7624 6.05999 93.9224 6.02999 94.0624 6.02999H96.1024C96.1824 6.04999 96.2924 6.05999 96.4324 6.05999C96.5924 6.05999 96.7724 6.05999 96.9724 6.05999C97.1324 6.05999 97.1624 6.05999 97.0624 6.05999C96.9824 6.05999 96.8924 6.06999 96.7924 6.08999C96.6924 6.08999 96.6924 6.09999 96.7924 6.11999H99.0124C99.5324 6.11999 99.8924 6.19999 100.092 6.35999C100.292 6.49999 100.392 6.82999 100.392 7.34998L100.362 7.64999L100.332 8.15999C100.292 8.21999 100.272 8.36999 100.272 8.60999V9.20999L100.362 9.53999V10.44C100.342 10.6 100.332 10.83 100.332 11.13C100.332 11.43 100.332 11.78 100.332 12.18V14.37C100.312 14.63 100.292 14.95 100.272 15.33C100.272 15.69 100.272 16.09 100.272 16.53V23.94L100.152 25.14C100.092 25.52 99.9224 25.78 99.6424 25.92L99.1624 25.95L98.6524 25.92H94.4824C94.1024 25.94 93.7724 25.9 93.4924 25.8C93.2124 25.68 92.9624 25.55 92.7424 25.41L87.6424 20.55C87.6424 20.53 87.5724 20.45 87.4324 20.31C87.2924 20.17 87.1324 20.01 86.9524 19.83C86.7924 19.65 86.6624 19.51 86.5624 19.41C86.5424 19.37 86.5124 19.33 86.4724 19.29C86.4524 19.25 86.4324 19.22 86.4124 19.2C86.3924 19.2 86.3724 19.2 86.3524 19.2C86.3524 19.18 86.3424 19.17 86.3224 19.17C86.1224 19.17 86.0224 19.24 86.0224 19.38V20.04C86.0024 20.14 85.9924 20.28 85.9924 20.46C85.9924 20.62 85.9924 20.81 85.9924 21.03V23.34C85.9724 23.46 85.9524 23.59 85.9324 23.73C85.9124 23.87 85.9024 24.02 85.9024 24.18V25.23L85.9624 25.41C85.9624 25.45 85.9324 25.5 85.8724 25.56C85.8324 25.62 85.7824 25.65 85.7224 25.65C85.6424 25.71 85.5024 25.72 85.3024 25.68C84.9224 25.7 84.5924 25.73 84.3124 25.77C84.0524 25.81 83.8424 25.84 83.6824 25.86C83.5024 25.88 83.2624 25.9 82.9624 25.92C82.6624 25.94 82.3824 25.95 82.1224 25.95C81.8624 25.97 81.7024 25.98 81.6424 25.98ZM111.395 26.79C110.655 26.79 109.895 26.74 109.115 26.64C108.335 26.56 107.605 26.45 106.925 26.31C106.365 26.17 105.885 26 105.485 25.8C105.085 25.6 104.715 25.32 104.375 24.96C104.055 24.6 103.705 24.13 103.325 23.55H102.995L102.965 23.07C102.945 23.07 102.925 23.07 102.905 23.07C102.905 23.05 102.885 23.04 102.845 23.04L102.605 22.5C101.745 20.86 101.355 19.1 101.435 17.22C101.535 15.28 101.935 13.67 102.635 12.39C103.355 11.09 104.495 9.91999 106.055 8.87999C106.495 8.61999 106.915 8.44999 107.315 8.36999C107.715 8.28999 108.105 8.20999 108.485 8.12999C109.005 8.12999 109.575 8.13999 110.195 8.15999C110.815 8.17999 111.435 8.18999 112.055 8.18999H112.175C112.215 8.18999 112.235 8.19999 112.235 8.21999C112.335 8.19999 112.485 8.18999 112.685 8.18999C112.885 8.18999 113.085 8.19999 113.285 8.21999C114.825 8.33999 116.135 8.86999 117.215 9.80999C117.915 10.43 118.515 11.18 119.015 12.06C119.515 12.94 119.895 13.9 120.155 14.94C120.415 15.98 120.525 17.03 120.485 18.09C120.465 18.87 120.345 19.6 120.125 20.28C119.925 20.96 119.715 21.65 119.495 22.35C119.295 23.01 118.965 23.63 118.505 24.21C118.045 24.79 117.525 25.27 116.945 25.65L116.285 26.07C116.265 26.09 116.255 26.08 116.255 26.04C116.255 26.02 116.205 26.06 116.105 26.16C116.065 26.2 116.015 26.22 115.955 26.22C115.875 26.28 115.695 26.31 115.415 26.31H115.235C114.775 26.45 114.305 26.6 113.825 26.76C113.345 26.94 112.935 26.95 112.595 26.79C112.475 26.73 112.355 26.71 112.235 26.73C112.135 26.77 112.065 26.79 112.025 26.79H111.395ZM111.335 23.22C111.455 23.22 111.575 23.21 111.695 23.19C111.835 23.17 111.915 23.16 111.935 23.16L112.445 22.05C112.465 21.99 112.485 21.93 112.505 21.87C112.525 21.79 112.535 21.71 112.535 21.63L112.745 21.27V20.61C112.845 20.43 112.915 20.25 112.955 20.07C112.995 19.87 113.055 19.53 113.135 19.05V18.54L113.165 18L112.625 13.92C112.505 12.96 112.225 12.44 111.785 12.36C111.565 12.32 111.425 12.28 111.365 12.24C111.305 12.2 111.205 12.17 111.065 12.15C111.005 12.13 110.905 12.1 110.765 12.06C110.625 12.02 110.485 12.06 110.345 12.18C110.125 12.54 109.935 13.01 109.775 13.59C109.635 14.17 109.565 14.72 109.565 15.24V16.14C109.565 16.32 109.565 16.67 109.565 17.19C109.565 17.71 109.585 18.26 109.625 18.84C109.665 19.4 109.735 19.87 109.835 20.25C109.935 20.57 109.995 20.78 110.015 20.88C110.035 20.98 110.045 21.07 110.045 21.15C110.045 21.91 110.305 22.49 110.825 22.89C110.825 23.11 110.995 23.22 111.335 23.22ZM148.439 17.16C148.499 19.1 148.449 20.65 148.289 21.81C148.129 22.97 147.849 23.88 147.449 24.54C147.229 24.88 146.919 25.15 146.519 25.35C145.819 25.71 144.989 25.97 144.029 26.13C143.069 26.29 142.059 26.35 140.999 26.31C139.939 26.29 138.909 26.17 137.909 25.95C136.929 25.73 136.069 25.42 135.329 25.02L135.119 25.14C134.759 25.5 134.179 25.79 133.379 26.01C132.579 26.25 131.679 26.4 130.679 26.46C129.679 26.52 128.669 26.49 127.649 26.37C126.629 26.27 125.719 26.07 124.919 25.77C123.779 25.43 122.939 24.57 122.399 23.19C121.879 21.79 121.619 19.76 121.619 17.1V16.44C121.619 16.16 121.619 15.97 121.619 15.87C121.619 15.77 121.629 15.71 121.649 15.69L121.739 11.34C121.739 11.1 121.739 10.85 121.739 10.59C121.759 10.31 121.769 10.02 121.769 9.71999C121.769 9.51999 121.769 9.39999 121.769 9.35999C121.769 9.29999 121.759 9.25999 121.739 9.23999C121.719 9.07999 121.729 8.96999 121.769 8.90999C121.809 8.82999 121.829 8.74999 121.829 8.66999C121.829 8.40999 122.119 8.27999 122.699 8.27999H123.149C123.329 8.27999 123.479 8.25999 123.599 8.21999L127.349 8.27999L127.379 8.30999C127.419 8.34999 127.439 8.36999 127.439 8.36999L127.619 8.27999C128.459 8.27999 128.989 8.37999 129.209 8.57999C129.529 8.83999 129.689 9.36999 129.689 10.17C129.689 10.31 129.699 10.5 129.719 10.74C129.739 10.98 129.759 11.21 129.779 11.43C129.799 11.49 129.809 11.59 129.809 11.73C129.809 11.87 129.809 12.17 129.809 12.63V12.9C129.809 13.02 129.799 13.36 129.779 13.92C129.759 14.48 129.729 15.12 129.689 15.84C129.669 16.54 129.649 17.21 129.629 17.85C129.609 18.47 129.599 18.93 129.599 19.23C129.619 19.73 129.619 20.13 129.599 20.43C129.599 20.73 129.629 20.93 129.689 21.03C129.769 21.31 129.969 21.49 130.289 21.57C130.609 21.65 130.919 21.63 131.219 21.51C131.519 21.39 131.689 21.18 131.729 20.88L131.789 20.34C131.889 19.78 131.919 19.13 131.879 18.39C131.839 17.65 131.819 17.01 131.819 16.47L131.939 15V14.82C131.959 14.54 131.969 14.21 131.969 13.83C131.989 13.45 131.999 13.06 131.999 12.66L132.209 9.38999C132.209 9.20999 132.239 9.09999 132.299 9.05999C132.359 8.99999 132.489 8.96999 132.689 8.96999H133.049C133.129 8.96999 133.209 8.96999 133.289 8.96999C133.389 8.94999 133.549 8.92999 133.769 8.90999L135.959 8.96999L135.989 8.99999C136.029 9.03999 136.039 9.05999 136.019 9.05999L136.229 8.96999C136.709 8.96999 137.059 8.98999 137.279 9.02999C137.499 9.06999 137.659 9.13999 137.759 9.23999C138.039 9.51999 138.179 10.06 138.179 10.86C138.179 11.02 138.179 11.19 138.179 11.37C138.199 11.55 138.209 11.78 138.209 12.06C138.209 12.16 138.209 12.3 138.209 12.48C138.229 12.66 138.239 12.82 138.239 12.96V13.2C138.239 13.34 138.239 13.63 138.239 14.07C138.259 14.49 138.279 14.97 138.299 15.51C138.319 16.05 138.329 16.58 138.329 17.1C138.349 17.6 138.359 18 138.359 18.3V19.11C138.339 19.21 138.339 19.36 138.359 19.56C138.399 19.74 138.429 19.94 138.449 20.16C138.469 20.22 138.459 20.39 138.419 20.67C138.399 20.93 138.489 21.14 138.689 21.3C138.809 21.48 138.969 21.57 139.169 21.57C139.369 21.55 139.559 21.5 139.739 21.42C139.939 21.34 140.049 21.3 140.069 21.3C140.129 21.3 140.199 21.22 140.279 21.06C140.319 20.82 140.349 20.66 140.369 20.58C140.409 20.48 140.419 20.37 140.399 20.25V19.38C140.399 19.08 140.389 18.73 140.369 18.33C140.369 17.93 140.359 17.69 140.339 17.61V16.65L140.309 15.81C140.289 15.17 140.269 14.62 140.249 14.16C140.249 13.7 140.239 13.33 140.219 13.05V12.78H140.249L140.219 9.56998C140.139 9.26999 140.149 9.01999 140.249 8.81999C140.369 8.61999 140.559 8.53999 140.819 8.57999H141.569C141.649 8.57999 141.719 8.57999 141.779 8.57999C141.839 8.55999 141.899 8.53999 141.959 8.51999L145.769 8.57999L145.799 8.60999L145.829 8.66999L146.039 8.57999C146.919 8.57999 147.489 8.67999 147.749 8.87999C148.109 9.11999 148.289 9.67999 148.289 10.56C148.289 10.8 148.289 11.16 148.289 11.64C148.309 12.12 148.319 12.64 148.319 13.2C148.339 13.76 148.349 14.3 148.349 14.82C148.369 15.32 148.379 15.71 148.379 15.99L148.409 16.02C148.429 16.04 148.439 16.08 148.439 16.14C148.439 16.18 148.439 16.28 148.439 16.44V17.16Z" fill="black"/>
</svg>
