<svg width="361" height="229" viewBox="0 0 361 229" fill="none" xmlns="http://www.w3.org/2000/svg">
<g clip-path="url(#clip0_1_566)">
<path fill-rule="evenodd" clip-rule="evenodd" d="M4.63951 55.4038C0.302776 69.2211 -1.27054 170.783 1.10962 224.433C8.9628 224.208 16.8227 224.022 24.6893 223.876L27.1703 204.761L31.2045 223.741C69.3543 222.976 107.679 222.774 146.178 223.134L150.212 213.011L153.48 223.134C208.526 223.876 263.472 225.698 318.034 228.937L357.952 205.605C359.707 202.231 361.3 65.4588 360.836 10.5443C343.153 11.0167 325.484 11.3203 307.827 11.4553L302.563 18.7435L297.984 15.3693L294.353 15.8755L291.368 11.6071C234.285 11.6521 177.504 9.97067 121.025 6.56277L117.697 12.0795L112.311 9.14401L107.753 16.9552L105.07 5.56739C81.6316 4.01527 58.2402 2.17073 34.8958 0.0337664L4.63951 55.4038Z" fill="url(#paint0_linear_1_566)"/>
<path style="mix-blend-mode:multiply" fill-rule="evenodd" clip-rule="evenodd" d="M318.034 228.937C321.302 223.42 332.86 196.883 335.704 195.82C337.943 195.01 353.676 204.728 357.892 205.605L318.034 228.937Z" fill="url(#paint1_radial_1_566)"/>
<path fill-rule="evenodd" clip-rule="evenodd" d="M318.034 228.937C323.319 219.473 328.483 209.941 334.574 200.864C342.261 202.789 350.065 204.372 357.952 205.605C357.871 207.967 320.959 228.937 318.034 228.937Z" fill="url(#paint2_linear_1_566)"/>
<path style="mix-blend-mode:screen" opacity="0.5" fill-rule="evenodd" clip-rule="evenodd" d="M42.6616 41.8565C49.1365 36.306 56.5391 31.5991 63.0342 31.734C82.7411 32.257 71.7278 11.624 99.3417 18.5073C115.337 22.4888 117.879 12.8049 130.324 14.0534C139.219 14.9475 141.479 21.4934 156.667 22.8094C172.3 24.159 194.245 23.7204 201.507 19.4352C218.188 9.75132 245.883 24.2265 262.02 20.9198C274.494 18.4668 287.232 17.0707 300.042 16.7527L302.563 18.7435L303.894 16.8877C306.548 16.8736 309.188 17.2037 311.72 17.8662C325.396 22.4719 315.755 25.5593 333.707 31.0254C345.426 34.5683 347.342 46.5129 345.285 58.7442C341.997 78.4156 327.272 91.693 327.252 108.429C327.252 123.191 341.735 129.585 343.671 145.005C344.801 154.048 341.795 163.242 345.083 172.639C352.526 194.031 319.991 183.15 314.343 208.996C310.309 227.554 265.529 212.134 253.225 211.813C219.822 210.936 219.358 219.641 178.391 217.296C170.323 216.824 166.006 212.05 151.645 216.723L150.455 212.994L148.438 217.668C126.532 223.252 100.027 203.243 62.6913 212.033C50.4274 214.968 38.7686 216.503 29.4901 215.441L27.1704 204.795L25.8795 214.833C13.777 212.235 6.61633 204.12 8.06863 187.013C10.8925 153.676 14.7653 144.009 22.1882 112.022C24.8306 100.685 27.3519 87.4921 28.5017 77.0997C30.6196 57.5464 31.4265 51.4729 42.6213 41.9071L42.6616 41.8565Z" fill="url(#paint3_radial_1_566)"/>
<path style="mix-blend-mode:screen" opacity="0.5" fill-rule="evenodd" clip-rule="evenodd" d="M42.4999 75.6657C42.8832 53.548 58.8585 37.0146 85.5243 35.8843C104.283 35.1082 111.525 18.018 145.391 39.5958C163.122 50.8993 195.818 24.3109 216.917 32.8475C234.002 39.5958 245.802 26.3691 260.385 30.7218C276.804 35.6312 292.659 18.4061 311.559 33.2693C328.785 46.8672 337.781 51.9622 329.047 76.1212C327.272 80.98 319.829 98.7619 325.013 116.611C325.88 119.564 327.151 125.266 328.744 130.597C340.847 171.475 319.627 150.269 317.348 180.602C316.743 188.447 308.432 188.059 307.605 194.453C305.023 214.698 276.966 210.683 257.602 202.585C244.713 197.186 227.93 198.334 214.013 204.272C177.06 220.114 155.033 205.031 135.649 191.417C123.405 182.812 88.8122 191.906 78.1217 195.027C52.9686 202.383 50.0438 192.193 30.7202 184.196C18.3958 179.135 20.1305 154.571 28.4207 145.528C44.8801 127.712 42.3587 82.4647 42.4999 75.6657Z" fill="url(#paint4_radial_1_566)"/>
<path style="mix-blend-mode:screen" fill-rule="evenodd" clip-rule="evenodd" d="M337.075 204.728C329.531 207.359 323.823 219.54 321.443 226.946L321.181 227.79C320.221 228.324 319.155 228.713 318.034 228.937L318.478 228.161C323.601 218.95 328.563 209.705 334.615 200.864C342.301 202.789 350.105 204.372 357.993 205.605C357.929 205.845 357.79 206.067 357.589 206.246L357.145 206.094C351.881 204.407 342.259 202.939 337.116 204.728L337.075 204.728Z" fill="url(#paint5_radial_1_566)"/>
<path style="mix-blend-mode:multiply" opacity="0.4" fill-rule="evenodd" clip-rule="evenodd" d="M358.698 42.8013C358.456 19.7389 343.812 12.9905 326.768 11.3035C338.104 11.146 349.446 10.9154 360.796 10.6117C361.139 52.3502 360.312 141.445 359.122 183.234C357.468 150.42 353.252 139.184 347.423 110.825C343.388 91.4737 346.696 88.032 353.575 69.6259C357.038 61.0057 358.756 51.9623 358.658 42.8688L358.698 42.8013Z" fill="url(#paint6_radial_1_566)"/>
<path style="mix-blend-mode:multiply" opacity="0.35" fill-rule="evenodd" clip-rule="evenodd" d="M3.81232 59.2335C4.41744 66.5723 7.16068 76.1044 9.11725 84.5398C11.2851 93.3374 11.2301 102.417 8.95589 111.196C4.62238 130.566 1.6321 150.129 3.57083e-05 169.788C-0.141163 124.439 1.25062 75.3114 3.81232 59.2335Z" fill="url(#paint7_radial_1_566)"/>
<path style="mix-blend-mode:multiply" fill-rule="evenodd" clip-rule="evenodd" d="M4.65907 55.387L34.9153 1.4148e-05C39.2319 1.36655 54.4205 14.0028 54.6222 16.4153C54.824 18.8279 10.67 49.7184 4.65907 55.387Z" fill="url(#paint8_radial_1_566)"/>
<path fill-rule="evenodd" clip-rule="evenodd" d="M46.7966 18.6254C31.9322 30.2151 17.8577 42.494 4.63954 55.4038C4.78073 51.2705 30.1758 -0.118108 34.8958 -1.25549e-05C39.6036 5.83871 43.6037 12.0554 46.8369 18.5579L46.7966 18.6254Z" fill="url(#paint9_linear_1_566)"/>
<path style="mix-blend-mode:screen" fill-rule="evenodd" clip-rule="evenodd" d="M10.9322 43.8474C24.4265 40.9794 41.6524 16.2636 40.5027 7.71008C42.8653 11.2375 44.9671 14.8828 46.796 18.6255C31.9638 30.1914 17.9165 42.4419 4.71962 55.3196C5.83638 51.4506 7.34801 47.6689 9.23788 44.0161C9.83793 43.9798 10.4324 43.895 11.0129 43.7631L10.9322 43.8474Z" fill="url(#paint10_radial_1_566)"/>
<g filter="url(#filter0_d_1_566)">
<rect x="16.8867" y="146.797" width="160.146" height="45.9827" rx="17" fill="#62D732"/>
<rect x="17.8867" y="147.797" width="158.146" height="43.9827" rx="16" stroke="#309C04" stroke-width="2"/>
</g>
<path d="M63.7219 171.93L66.8579 171.93L66.8579 173.778L61.3279 173.778L61.3279 163.95L63.7219 163.95L63.7219 171.93ZM70.9957 173.89C70.2304 173.89 69.5397 173.727 68.9237 173.4C68.3171 173.074 67.8364 172.607 67.4817 172C67.1364 171.394 66.9637 170.684 66.9637 169.872C66.9637 169.07 67.1411 168.365 67.4957 167.758C67.8504 167.142 68.3357 166.671 68.9517 166.344C69.5677 166.018 70.2584 165.854 71.0237 165.854C71.7891 165.854 72.4797 166.018 73.0957 166.344C73.7117 166.671 74.1971 167.142 74.5517 167.758C74.9064 168.365 75.0837 169.07 75.0837 169.872C75.0837 170.675 74.9017 171.384 74.5377 172C74.1831 172.607 73.6931 173.074 73.0677 173.4C72.4517 173.727 71.7611 173.89 70.9957 173.89ZM70.9957 171.818C71.4531 171.818 71.8404 171.65 72.1577 171.314C72.4844 170.978 72.6477 170.498 72.6477 169.872C72.6477 169.247 72.4891 168.766 72.1717 168.43C71.8637 168.094 71.4811 167.926 71.0237 167.926C70.5571 167.926 70.1697 168.094 69.8617 168.43C69.5537 168.757 69.3997 169.238 69.3997 169.872C69.3997 170.498 69.5491 170.978 69.8477 171.314C70.1557 171.65 70.5384 171.818 70.9957 171.818ZM75.3178 169.872C75.3178 169.06 75.4811 168.351 75.8078 167.744C76.1438 167.138 76.6058 166.671 77.1938 166.344C77.7911 166.018 78.4725 165.854 79.2378 165.854C80.2178 165.854 81.0345 166.111 81.6878 166.624C82.3505 167.138 82.7845 167.861 82.9898 168.794L80.4418 168.794C80.2271 168.197 79.8118 167.898 79.1958 167.898C78.7571 167.898 78.4071 168.071 78.1458 168.416C77.8845 168.752 77.7538 169.238 77.7538 169.872C77.7538 170.507 77.8845 170.997 78.1458 171.342C78.4071 171.678 78.7571 171.846 79.1958 171.846C79.8118 171.846 80.2271 171.548 80.4418 170.95L82.9898 170.95C82.7845 171.865 82.3505 172.584 81.6878 173.106C81.0251 173.629 80.2085 173.89 79.2378 173.89C78.4725 173.89 77.7911 173.727 77.1938 173.4C76.6058 173.074 76.1438 172.607 75.8078 172C75.4811 171.394 75.3178 170.684 75.3178 169.872ZM88.4844 173.778L86.1044 170.502L86.1044 173.778L83.7104 173.778L83.7104 163.418L86.1044 163.418L86.1044 169.144L88.4704 165.966L91.4244 165.966L88.1764 169.886L91.4524 173.778L88.4844 173.778ZM102.639 163.95L99.2374 170.53L99.2374 173.778L96.8434 173.778L96.8434 170.53L93.4414 163.95L96.1574 163.95L98.0614 168.066L99.9514 163.95L102.639 163.95ZM106.6 173.89C105.835 173.89 105.144 173.727 104.528 173.4C103.921 173.074 103.441 172.607 103.086 172C102.741 171.394 102.568 170.684 102.568 169.872C102.568 169.07 102.745 168.365 103.1 167.758C103.455 167.142 103.94 166.671 104.556 166.344C105.172 166.018 105.863 165.854 106.628 165.854C107.393 165.854 108.084 166.018 108.7 166.344C109.316 166.671 109.801 167.142 110.156 167.758C110.511 168.365 110.688 169.07 110.688 169.872C110.688 170.675 110.506 171.384 110.142 172C109.787 172.607 109.297 173.074 108.672 173.4C108.056 173.727 107.365 173.89 106.6 173.89ZM106.6 171.818C107.057 171.818 107.445 171.65 107.762 171.314C108.089 170.978 108.252 170.498 108.252 169.872C108.252 169.247 108.093 168.766 107.776 168.43C107.468 168.094 107.085 167.926 106.628 167.926C106.161 167.926 105.774 168.094 105.466 168.43C105.158 168.757 105.004 169.238 105.004 169.872C105.004 170.498 105.153 170.978 105.452 171.314C105.76 171.65 106.143 171.818 106.6 171.818ZM119.112 165.966L119.112 173.778L116.718 173.778L116.718 172.714C116.475 173.06 116.144 173.34 115.724 173.554C115.313 173.76 114.856 173.862 114.352 173.862C113.755 173.862 113.227 173.732 112.77 173.47C112.313 173.2 111.958 172.812 111.706 172.308C111.454 171.804 111.328 171.212 111.328 170.53L111.328 165.966L113.708 165.966L113.708 170.208C113.708 170.731 113.843 171.137 114.114 171.426C114.385 171.716 114.749 171.86 115.206 171.86C115.673 171.86 116.041 171.716 116.312 171.426C116.583 171.137 116.718 170.731 116.718 170.208L116.718 165.966L119.112 165.966ZM122.666 167.268C122.946 166.839 123.296 166.503 123.716 166.26C124.136 166.008 124.602 165.882 125.116 165.882L125.116 168.416L124.458 168.416C123.86 168.416 123.412 168.547 123.114 168.808C122.815 169.06 122.666 169.508 122.666 170.152L122.666 173.778L120.272 173.778L120.272 165.966L122.666 165.966L122.666 167.268ZM128.878 173.89C128.197 173.89 127.59 173.774 127.058 173.54C126.526 173.307 126.106 172.99 125.798 172.588C125.49 172.178 125.317 171.72 125.28 171.216L127.646 171.216C127.674 171.487 127.8 171.706 128.024 171.874C128.248 172.042 128.523 172.126 128.85 172.126C129.149 172.126 129.377 172.07 129.536 171.958C129.704 171.837 129.788 171.683 129.788 171.496C129.788 171.272 129.671 171.109 129.438 171.006C129.205 170.894 128.827 170.773 128.304 170.642C127.744 170.512 127.277 170.376 126.904 170.236C126.531 170.087 126.209 169.858 125.938 169.55C125.667 169.233 125.532 168.808 125.532 168.276C125.532 167.828 125.653 167.422 125.896 167.058C126.148 166.685 126.512 166.391 126.988 166.176C127.473 165.962 128.047 165.854 128.71 165.854C129.69 165.854 130.46 166.097 131.02 166.582C131.589 167.068 131.916 167.712 132 168.514L129.788 168.514C129.751 168.244 129.629 168.029 129.424 167.87C129.228 167.712 128.967 167.632 128.64 167.632C128.36 167.632 128.145 167.688 127.996 167.8C127.847 167.903 127.772 168.048 127.772 168.234C127.772 168.458 127.889 168.626 128.122 168.738C128.365 168.85 128.738 168.962 129.242 169.074C129.821 169.224 130.292 169.373 130.656 169.522C131.02 169.662 131.337 169.896 131.608 170.222C131.888 170.54 132.033 170.969 132.042 171.51C132.042 171.968 131.911 172.378 131.65 172.742C131.398 173.097 131.029 173.377 130.544 173.582C130.068 173.788 129.513 173.89 128.878 173.89Z" fill="white"/>
<g filter="url(#filter1_d_1_566)">
<rect x="186.036" y="146.797" width="160.146" height="45.9827" rx="17" fill="white"/>
<rect x="187.036" y="147.797" width="158.146" height="43.9827" rx="16" stroke="#381200" stroke-width="2"/>
</g>
<path d="M231.871 171.93L235.007 171.93L235.007 173.778L229.477 173.778L229.477 163.95L231.871 163.95L231.871 171.93ZM242.953 169.746C242.953 169.97 242.939 170.204 242.911 170.446L237.493 170.446C237.53 170.932 237.684 171.305 237.955 171.566C238.235 171.818 238.576 171.944 238.977 171.944C239.574 171.944 239.99 171.692 240.223 171.188L242.771 171.188C242.64 171.702 242.402 172.164 242.057 172.574C241.721 172.985 241.296 173.307 240.783 173.54C240.27 173.774 239.696 173.89 239.061 173.89C238.296 173.89 237.614 173.727 237.017 173.4C236.42 173.074 235.953 172.607 235.617 172C235.281 171.394 235.113 170.684 235.113 169.872C235.113 169.06 235.276 168.351 235.603 167.744C235.939 167.138 236.406 166.671 237.003 166.344C237.6 166.018 238.286 165.854 239.061 165.854C239.817 165.854 240.489 166.013 241.077 166.33C241.665 166.648 242.122 167.1 242.449 167.688C242.785 168.276 242.953 168.962 242.953 169.746ZM240.503 169.116C240.503 168.706 240.363 168.379 240.083 168.136C239.803 167.894 239.453 167.772 239.033 167.772C238.632 167.772 238.291 167.889 238.011 168.122C237.74 168.356 237.572 168.687 237.507 169.116L240.503 169.116ZM243.18 169.858C243.18 169.056 243.329 168.351 243.628 167.744C243.936 167.138 244.351 166.671 244.874 166.344C245.397 166.018 245.98 165.854 246.624 165.854C247.175 165.854 247.655 165.966 248.066 166.19C248.486 166.414 248.808 166.708 249.032 167.072L249.032 165.966L251.426 165.966L251.426 173.778L249.032 173.778L249.032 172.672C248.799 173.036 248.472 173.33 248.052 173.554C247.641 173.778 247.161 173.89 246.61 173.89C245.975 173.89 245.397 173.727 244.874 173.4C244.351 173.064 243.936 172.593 243.628 171.986C243.329 171.37 243.18 170.661 243.18 169.858ZM249.032 169.872C249.032 169.275 248.864 168.804 248.528 168.458C248.201 168.113 247.8 167.94 247.324 167.94C246.848 167.94 246.442 168.113 246.106 168.458C245.779 168.794 245.616 169.261 245.616 169.858C245.616 170.456 245.779 170.932 246.106 171.286C246.442 171.632 246.848 171.804 247.324 171.804C247.8 171.804 248.201 171.632 248.528 171.286C248.864 170.941 249.032 170.47 249.032 169.872ZM254.992 167.268C255.272 166.839 255.622 166.503 256.042 166.26C256.462 166.008 256.929 165.882 257.442 165.882L257.442 168.416L256.784 168.416C256.187 168.416 255.739 168.547 255.44 168.808C255.141 169.06 254.992 169.508 254.992 170.152L254.992 173.778L252.598 173.778L252.598 165.966L254.992 165.966L254.992 167.268ZM262.786 165.882C263.701 165.882 264.429 166.181 264.97 166.778C265.521 167.366 265.796 168.178 265.796 169.214L265.796 173.778L263.416 173.778L263.416 169.536C263.416 169.014 263.281 168.608 263.01 168.318C262.74 168.029 262.376 167.884 261.918 167.884C261.461 167.884 261.097 168.029 260.826 168.318C260.556 168.608 260.42 169.014 260.42 169.536L260.42 173.778L258.026 173.778L258.026 165.966L260.42 165.966L260.42 167.002C260.663 166.657 260.99 166.386 261.4 166.19C261.811 165.985 262.273 165.882 262.786 165.882ZM280.437 163.95L280.437 173.778L278.043 173.778L278.043 167.884L275.845 173.778L273.913 173.778L271.701 167.87L271.701 173.778L269.307 173.778L269.307 163.95L272.135 163.95L274.893 170.754L277.623 163.95L280.437 163.95ZM285.154 173.89C284.389 173.89 283.698 173.727 283.082 173.4C282.476 173.074 281.995 172.607 281.64 172C281.295 171.394 281.122 170.684 281.122 169.872C281.122 169.07 281.3 168.365 281.654 167.758C282.009 167.142 282.494 166.671 283.11 166.344C283.726 166.018 284.417 165.854 285.182 165.854C285.948 165.854 286.638 166.018 287.254 166.344C287.87 166.671 288.356 167.142 288.71 167.758C289.065 168.365 289.242 169.07 289.242 169.872C289.242 170.675 289.06 171.384 288.696 172C288.342 172.607 287.852 173.074 287.226 173.4C286.61 173.727 285.92 173.89 285.154 173.89ZM285.154 171.818C285.612 171.818 285.999 171.65 286.316 171.314C286.643 170.978 286.806 170.498 286.806 169.872C286.806 169.247 286.648 168.766 286.33 168.43C286.022 168.094 285.64 167.926 285.182 167.926C284.716 167.926 284.328 168.094 284.02 168.43C283.712 168.757 283.558 169.238 283.558 169.872C283.558 170.498 283.708 170.978 284.006 171.314C284.314 171.65 284.697 171.818 285.154 171.818ZM292.346 167.268C292.626 166.839 292.976 166.503 293.396 166.26C293.816 166.008 294.283 165.882 294.796 165.882L294.796 168.416L294.138 168.416C293.541 168.416 293.093 168.547 292.794 168.808C292.496 169.06 292.346 169.508 292.346 170.152L292.346 173.778L289.952 173.778L289.952 165.966L292.346 165.966L292.346 167.268ZM302.745 169.746C302.745 169.97 302.731 170.204 302.703 170.446L297.285 170.446C297.322 170.932 297.476 171.305 297.747 171.566C298.027 171.818 298.367 171.944 298.769 171.944C299.366 171.944 299.781 171.692 300.015 171.188L302.563 171.188C302.432 171.702 302.194 172.164 301.849 172.574C301.513 172.985 301.088 173.307 300.575 173.54C300.061 173.774 299.487 173.89 298.853 173.89C298.087 173.89 297.406 173.727 296.809 173.4C296.211 173.074 295.745 172.607 295.409 172C295.073 171.394 294.905 170.684 294.905 169.872C294.905 169.06 295.068 168.351 295.395 167.744C295.731 167.138 296.197 166.671 296.795 166.344C297.392 166.018 298.078 165.854 298.853 165.854C299.609 165.854 300.281 166.013 300.869 166.33C301.457 166.648 301.914 167.1 302.241 167.688C302.577 168.276 302.745 168.962 302.745 169.746ZM300.295 169.116C300.295 168.706 300.155 168.379 299.875 168.136C299.595 167.894 299.245 167.772 298.825 167.772C298.423 167.772 298.083 167.889 297.803 168.122C297.532 168.356 297.364 168.687 297.299 169.116L300.295 169.116Z" fill="black"/>
</g>
<defs>
<filter id="filter0_d_1_566" x="16.8867" y="146.797" width="160.146" height="49.9827" filterUnits="userSpaceOnUse" color-interpolation-filters="sRGB">
<feFlood flood-opacity="0" result="BackgroundImageFix"/>
<feColorMatrix in="SourceAlpha" type="matrix" values="0 0 0 0 0 0 0 0 0 0 0 0 0 0 0 0 0 0 127 0" result="hardAlpha"/>
<feOffset dy="4"/>
<feComposite in2="hardAlpha" operator="out"/>
<feColorMatrix type="matrix" values="0 0 0 0 0.188235 0 0 0 0 0.611765 0 0 0 0 0.0156863 0 0 0 1 0"/>
<feBlend mode="normal" in2="BackgroundImageFix" result="effect1_dropShadow_1_566"/>
<feBlend mode="normal" in="SourceGraphic" in2="effect1_dropShadow_1_566" result="shape"/>
</filter>
<filter id="filter1_d_1_566" x="186.036" y="146.797" width="160.146" height="49.9827" filterUnits="userSpaceOnUse" color-interpolation-filters="sRGB">
<feFlood flood-opacity="0" result="BackgroundImageFix"/>
<feColorMatrix in="SourceAlpha" type="matrix" values="0 0 0 0 0 0 0 0 0 0 0 0 0 0 0 0 0 0 127 0" result="hardAlpha"/>
<feOffset dy="4"/>
<feComposite in2="hardAlpha" operator="out"/>
<feColorMatrix type="matrix" values="0 0 0 0 0.219608 0 0 0 0 0.0705882 0 0 0 0 0 0 0 0 1 0"/>
<feBlend mode="normal" in2="BackgroundImageFix" result="effect1_dropShadow_1_566"/>
<feBlend mode="normal" in="SourceGraphic" in2="effect1_dropShadow_1_566" result="shape"/>
</filter>
<linearGradient id="paint0_linear_1_566" x1="360.917" y1="114.485" x2="0.000221082" y2="114.486" gradientUnits="userSpaceOnUse">
<stop stop-color="#EDD6B9"/>
<stop offset="1" stop-color="#D4B492"/>
</linearGradient>
<radialGradient id="paint1_radial_1_566" cx="0" cy="0" r="1" gradientUnits="userSpaceOnUse" gradientTransform="translate(353.538 215.585) rotate(-90) scale(38.4726 44.2116)">
<stop stop-color="#A48A7B"/>
<stop offset="1" stop-color="white"/>
</radialGradient>
<linearGradient id="paint2_linear_1_566" x1="326.365" y1="203.85" x2="335.083" y2="218.244" gradientUnits="userSpaceOnUse">
<stop stop-color="#EDD6B9"/>
<stop offset="1" stop-color="#BF9F7E"/>
</linearGradient>
<radialGradient id="paint3_radial_1_566" cx="0" cy="0" r="1" gradientUnits="userSpaceOnUse" gradientTransform="translate(177.57 116.345) rotate(-90) scale(233.025 267.786)">
<stop stop-color="#CA9E67"/>
<stop offset="1"/>
</radialGradient>
<radialGradient id="paint4_radial_1_566" cx="0" cy="0" r="1" gradientUnits="userSpaceOnUse" gradientTransform="translate(177.789 119.056) rotate(-90) scale(198.723 228.367)">
<stop stop-color="#CA9E67"/>
<stop offset="1"/>
</radialGradient>
<radialGradient id="paint5_radial_1_566" cx="0" cy="0" r="1" gradientUnits="userSpaceOnUse" gradientTransform="translate(340.917 224.065) rotate(-90) scale(34.6149 39.7785)">
<stop/>
<stop offset="1" stop-color="#A3805F"/>
</radialGradient>
<radialGradient id="paint6_radial_1_566" cx="0" cy="0" r="1" gradientUnits="userSpaceOnUse" gradientTransform="translate(265.034 78.6199) rotate(-90) scale(204.683 235.216)">
<stop stop-color="white"/>
<stop offset="1" stop-color="#A48A7B"/>
</radialGradient>
<radialGradient id="paint7_radial_1_566" cx="0" cy="0" r="1" gradientUnits="userSpaceOnUse" gradientTransform="translate(-109.487 108.074) rotate(-90) scale(178.948 205.642)">
<stop stop-color="#A48A7B"/>
<stop offset="1" stop-color="white"/>
</radialGradient>
<radialGradient id="paint8_radial_1_566" cx="0" cy="0" r="1" gradientUnits="userSpaceOnUse" gradientTransform="translate(11.6656 13.1957) rotate(-90) scale(71.4888 82.153)">
<stop stop-color="#A48A7B"/>
<stop offset="1" stop-color="white"/>
</radialGradient>
<linearGradient id="paint9_linear_1_566" x1="17.6497" y1="25.9305" x2="41.3203" y2="54.6272" gradientUnits="userSpaceOnUse">
<stop stop-color="#BF9F7E"/>
<stop offset="1" stop-color="#EDD6B9"/>
</linearGradient>
<radialGradient id="paint10_radial_1_566" cx="0" cy="0" r="1" gradientUnits="userSpaceOnUse" gradientTransform="translate(-12.7566 28.0705) rotate(-90) scale(59.603 68.4941)">
<stop/>
<stop offset="1" stop-color="#A3805F"/>
</radialGradient>
<clipPath id="clip0_1_566">
<rect width="228.937" height="360.917" fill="white" transform="translate(1.19149e-05 228.937) rotate(-90)"/>
</clipPath>
</defs>
</svg>
