<svg width="386" height="151" viewBox="0 0 386 151" fill="none" xmlns="http://www.w3.org/2000/svg">
<path d="M37.1199 68.24C36.7999 69.1467 35.8933 69.6 34.3999 69.6H15.6799C15.4666 69.6 15.2533 69.5733 15.0399 69.52C14.8266 69.52 14.6399 69.4933 14.4799 69.44C14.2133 69.28 13.9466 69.1733 13.6799 69.12C13.4133 69.12 13.1999 69.12 13.0399 69.12H12.1599C11.6799 69.0667 11.4399 68.7733 11.4399 68.24L5.67993 43.68C5.25327 41.92 4.93327 40.6933 4.71993 40C4.5066 39.2533 4.3466 38.72 4.23993 38.4C4.13327 38.0267 3.99993 37.5467 3.83993 36.96C3.73327 36.3733 3.5466 35.3333 3.27993 33.84C3.01327 33.68 2.71993 33.1467 2.39993 32.24C2.13327 31.3333 1.9466 30.2933 1.83993 29.12C1.67993 26.72 1.43993 24.8 1.11993 23.36C0.799932 21.92 0.533265 20.8 0.319932 20C0.106598 19.2 0.0265983 18.6133 0.0799317 18.24C0.186598 17.8667 0.586598 17.5733 1.27993 17.36C2.5066 17.2533 3.73327 17.1467 4.95993 17.04C6.23993 16.88 7.3066 16.7467 8.15993 16.64C9.0666 16.5333 9.51993 16.48 9.51993 16.48L11.8399 16.08H12.5599L14.5599 15.6H15.0399C15.0933 15.4933 15.1466 15.44 15.1999 15.44H15.2799V15.6C15.3333 15.6 15.3866 15.6 15.4399 15.6C15.4933 15.6 15.5466 15.5733 15.5999 15.52C15.6533 15.4667 15.7066 15.44 15.7599 15.44C16.0266 15.3867 16.3199 15.3333 16.6399 15.28C16.9599 15.1733 17.1466 15.12 17.1999 15.12H17.5199L18.1599 14.96C18.5333 14.8533 19.0666 14.7733 19.7599 14.72C20.4533 14.6133 21.2266 14.4533 22.0799 14.24C22.9866 13.8133 23.5999 14.1867 23.9199 15.36C24.2933 16.48 24.6933 18.0267 25.1199 20C25.1199 20.2133 25.1199 20.3467 25.1199 20.4C25.1733 20.4533 25.2533 20.72 25.3599 21.2C25.5199 21.68 25.7333 22.6933 25.9999 24.24C26.2666 25.7333 26.6666 28.1067 27.1999 31.36V31.6C27.2533 31.7067 27.2799 31.92 27.2799 32.24L27.5999 33.76C27.5999 33.9733 27.6266 34.24 27.6799 34.56C27.7333 34.88 27.7866 35.2533 27.8399 35.68C27.8933 35.84 27.9199 36 27.9199 36.16C27.9733 36.2667 27.9999 36.4267 27.9999 36.64C28.1066 37.0667 28.2133 37.4133 28.3199 37.68C28.4799 37.8933 28.5866 38.1067 28.6399 38.32C28.7466 38.5333 28.7999 38.8 28.7999 39.12L28.9599 39.84V40.08C28.9599 40.2933 29.0133 40.4533 29.1199 40.56V41.04L29.2799 40.56V39.84C29.2799 39.7867 29.3066 39.68 29.3599 39.52C29.4133 39.36 29.4666 39.2267 29.5199 39.12C29.5199 38.96 29.5466 38.7733 29.5999 38.56C29.7066 38.2933 29.7599 38 29.7599 37.68C29.7599 37.3067 29.8399 36.96 29.9999 36.64L30.1599 35.68L30.9599 33.76C31.1733 33.4933 31.2799 33.2267 31.2799 32.96C31.3333 32.64 31.3599 32.4 31.3599 32.24L31.4399 31.36C31.7066 30.08 32.0799 28.6667 32.5599 27.12C33.0399 25.5733 33.5199 24.1333 33.9999 22.8C34.5333 21.4667 34.9066 20.4533 35.1199 19.76C35.1733 19.4933 35.2533 19.2267 35.3599 18.96C35.5199 18.6933 35.7866 18.48 36.1599 18.32C36.2133 18.32 36.2666 18.2933 36.3199 18.24C36.4266 18.1867 36.5066 18.1333 36.5599 18.08C36.9866 17.9733 37.2266 17.92 37.2799 17.92C37.8666 17.8667 38.3733 17.8133 38.7999 17.76C39.2266 17.7067 39.5466 17.68 39.7599 17.68H41.1999L50.9599 18C51.2799 18.0533 51.5733 18.08 51.8399 18.08C52.1066 18.08 52.3466 18.08 52.5599 18.08C53.1466 18.08 53.4399 18.16 53.4399 18.32C53.4933 18.32 53.5733 18.2667 53.6799 18.16C53.7333 18.1067 53.8399 18.08 53.9999 18.08C54.1066 17.9733 54.3466 17.92 54.7199 17.92H56.3199C57.1199 17.92 57.6266 18.0533 57.8399 18.32L60.9599 32.32L61.1199 33.28C61.2266 33.8133 61.3599 34.2667 61.5199 34.64C61.6799 34.96 61.7599 35.1733 61.7599 35.28L62.1599 37.84C62.2133 38.32 62.2666 38.7733 62.3199 39.2C62.3733 39.6267 62.4266 39.9467 62.4799 40.16C62.4799 40.48 62.4799 40.8 62.4799 41.12C62.5333 41.44 62.5866 41.8133 62.6399 42.24C62.7466 42.2933 62.7999 42.3733 62.7999 42.48C62.8533 42.5867 62.9066 42.6667 62.9599 42.72V43.04C62.9599 43.0933 62.9599 43.2 62.9599 43.36C62.9599 43.4667 62.9866 43.5733 63.0399 43.68L63.1199 44.08C63.2266 43.92 63.3599 43.7867 63.5199 43.68V42.24L63.8399 40.16L64.2399 37.84C64.2933 37.4133 64.3199 36.9867 64.3199 36.56C64.3733 36.1333 64.5066 35.7067 64.7199 35.28L64.8799 33.28L65.0399 32.64V32.32C65.2533 31.52 65.4133 30.88 65.5199 30.4C65.6266 29.8667 65.7066 29.4133 65.7599 29.04L66.0799 27.44C66.6666 24.6667 67.0933 22.5867 67.3599 21.2C67.6266 19.8133 67.8399 18.8 67.9999 18.16C68.1599 17.52 68.2933 16.96 68.3999 16.48C68.5599 15.4667 68.8266 14.72 69.1999 14.24C69.3599 14.24 69.5199 14.2667 69.6799 14.32C69.8399 14.32 70.0266 14.2933 70.2399 14.24C70.5066 14.1867 70.7199 14.16 70.8799 14.16C71.0399 14.16 71.1999 14.16 71.3599 14.16C71.6266 14.16 71.9999 14.1867 72.4799 14.24C72.9599 14.2933 73.3066 14.2933 73.5199 14.24H73.6799C73.7866 14.24 74.1599 14.32 74.7999 14.48C75.4933 14.64 75.8399 14.72 75.8399 14.72C76.0533 14.7733 76.1866 14.7733 76.2399 14.72C76.2933 14.6667 76.3466 14.6933 76.3999 14.8C76.5066 14.8533 76.6133 14.88 76.7199 14.88C76.8266 14.8267 76.9066 14.8267 76.9599 14.88L77.4399 15.12C78.0799 15.44 78.6133 15.6 79.0399 15.6L81.8399 16C82.9599 16.16 83.9199 16.3733 84.7199 16.64C85.5733 16.8533 86.1066 16.9333 86.3199 16.88L88.2399 17.44C88.7199 17.6533 88.9066 18.2933 88.7999 19.36C88.7466 20.3733 88.5333 21.5467 88.1599 22.88C87.7866 24.2133 87.4399 25.4933 87.1199 26.72C86.7999 27.9467 86.6399 28.88 86.6399 29.52C86.2133 31.5467 85.8666 33.2267 85.5999 34.56C85.3333 35.8933 85.0666 37.0933 84.7999 38.16C84.5866 39.2267 84.3466 40.32 84.0799 41.44C83.8133 42.56 83.4399 43.92 82.9599 45.52L76.8799 68.24C76.5066 68.2933 76.2666 68.4533 76.1599 68.72V69.12H74.3199L73.2799 69.36L61.4399 69.12H51.9999C51.4666 69.0133 51.1999 68.72 51.1999 68.24L44.0799 42.24L37.1199 68.24ZM99.4999 71.12C94.4866 71.3333 90.7266 70.2933 88.2199 68C85.7133 65.6533 84.3533 61.9733 84.1399 56.96C84.0866 54.8267 84.2733 53.12 84.6999 51.84C85.1799 50.56 86.1666 49.0667 87.6599 47.36C89.2599 45.44 91.0733 44.08 93.0999 43.28C95.1266 42.4267 97.8466 41.9733 101.26 41.92C102.593 41.8667 103.74 41.84 104.7 41.84C105.713 41.7867 106.487 41.7867 107.02 41.84C108.567 41.8933 109.767 41.8933 110.62 41.84C110.46 40.1867 109.927 39.0133 109.02 38.32C108.487 37.8933 107.74 37.6 106.78 37.44C105.82 37.28 104.433 37.1733 102.62 37.12H96.2199C95.6866 37.12 95.3933 37.1467 95.3399 37.2C95.3399 37.2 95.0999 37.2 94.6199 37.2H93.9799L89.2599 37.76C88.5133 37.4933 88.1399 36.4533 88.1399 34.64C88.1399 34.32 88.1399 34 88.1399 33.68C88.1399 33.3067 88.1399 32.6933 88.1399 31.84C88.1399 30.9333 88.0866 29.52 87.9799 27.6C88.0866 27.2267 88.1133 26.7467 88.0599 26.16L88.1399 24.96C88.3533 24.96 88.5133 24.9067 88.6199 24.8L89.0199 24.32C89.0733 24.2133 89.1533 24.16 89.2599 24.16C89.4733 24.16 89.7666 24.1333 90.1399 24.08C90.5666 23.9733 91.0466 23.8667 91.5799 23.76L93.3399 23.44C93.7666 23.3333 94.0866 23.28 94.2999 23.28C95.7933 22.96 96.7799 22.7467 97.2599 22.64C97.7933 22.5333 98.4599 22.4533 99.2599 22.4C102.3 22.24 105.287 22.2133 108.22 22.32C111.153 22.3733 113.767 22.5333 116.06 22.8C118.407 23.0667 120.113 23.44 121.18 23.92C124.487 25.2533 126.913 27.2 128.46 29.76C130.007 32.2667 130.833 35.7333 130.94 40.16L131.26 51.84C131.313 53.3333 131.367 54.6667 131.42 55.84C131.473 56.96 131.5 57.7333 131.5 58.16L131.58 59.92C131.367 60.9867 131.207 61.92 131.1 62.72C131.047 63.4667 131.047 64.2933 131.1 65.2C131.207 66.8 131.127 67.92 130.86 68.56C130.647 69.1467 130.193 69.4667 129.5 69.52L116.54 69.92C116.113 69.8133 115.1 69.7867 113.5 69.84C112.913 69.8933 112.407 69.84 111.98 69.68C111.553 69.5733 111.127 69.44 110.7 69.28C109.953 68.96 109.58 68.16 109.58 66.88V65.92C109.58 65.8133 109.607 65.7333 109.66 65.68V65.44C109.553 65.3333 109.473 65.28 109.42 65.28C108.353 66.9333 106.887 68.2933 105.02 69.36C103.207 70.4267 101.367 71.0133 99.4999 71.12ZM105.58 58.32C107.98 58.32 109.527 57.04 110.22 54.48L110.3 52.96C110.353 51.8933 110.033 50.9067 109.34 50C108.647 49.04 107.9 48.5867 107.1 48.64C106.087 48.6933 105.207 49.1467 104.46 50C103.767 50.8533 103.473 51.8133 103.58 52.88L103.9 55.92C104.327 57.52 104.887 58.32 105.58 58.32ZM145.58 70.08C142.913 70.08 140.833 70 139.34 69.84C137.847 69.68 136.54 69.4133 135.42 69.04C135.1 69.04 134.887 68.9067 134.78 68.64C134.567 68.16 134.46 67.6267 134.46 67.04L133.58 53.52C133.473 52.0267 133.393 50.64 133.34 49.36C133.287 48.08 133.233 46.6933 133.18 45.2C133.18 43.6533 133.18 41.84 133.18 39.76V37.44L133.26 34.08L133.42 30.08L133.58 27.12C133.58 26.2133 133.58 25.6533 133.58 25.44C133.58 25.1733 133.607 24.96 133.66 24.8C133.66 24.64 133.767 24.56 133.98 24.56C134.46 24.56 134.94 24.4533 135.42 24.24C135.527 24.24 135.633 24.24 135.74 24.24C135.847 24.24 136.007 24.2133 136.22 24.16C136.327 24.16 136.46 24.16 136.62 24.16C136.833 24.16 136.993 24.1867 137.1 24.24H148.38C149.18 24.24 149.713 24.24 149.98 24.24C150.247 24.24 150.487 24.2667 150.7 24.32L153.18 24.4C153.82 24.4533 154.273 24.5067 154.54 24.56C154.86 24.6133 155.1 24.8 155.26 25.12L155.9 27.36V32.64C157.18 30.5067 159.5 28.2667 162.86 25.92C164.247 24.9067 165.607 24.2933 166.94 24.08C168.273 23.8667 169.393 23.6533 170.3 23.44C170.94 23.28 171.473 23.3867 171.9 23.76C172.327 24.08 172.54 24.5867 172.54 25.28C172.54 31.9467 172.38 36.6133 172.06 39.28C171.74 41.8933 171.153 43.1733 170.3 43.12C169.34 43.0667 168.3 42.9333 167.18 42.72C166.113 42.4533 164.86 42.32 163.42 42.32C161.233 42.32 159.393 42.9067 157.9 44.08C156.46 45.2 155.74 46.6133 155.74 48.32V68.32C155.74 68.5867 155.687 68.7467 155.58 68.8C155.527 68.8533 155.5 68.9867 155.5 69.2C155.447 69.4133 155.313 69.52 155.1 69.52C155.153 69.52 155.073 69.5733 154.86 69.68L154.46 69.84C152.38 69.84 150.407 69.92 148.54 70.08H145.58ZM184.177 70.08C181.51 70.08 179.43 70 177.937 69.84C176.443 69.68 175.137 69.4133 174.017 69.04C173.697 69.04 173.483 68.9067 173.377 68.64C173.163 68.16 173.057 67.6267 173.057 67.04L172.177 53.52C172.07 52.0267 171.99 50.64 171.937 49.36C171.883 48.08 171.83 46.6933 171.777 45.2C171.777 43.6533 171.777 41.84 171.777 39.76V37.44L171.857 34.08L172.017 30.08L172.177 27.12C172.177 26.2133 172.177 25.6533 172.177 25.44C172.177 25.1733 172.203 24.96 172.257 24.8C172.257 24.64 172.363 24.56 172.577 24.56C173.057 24.56 173.537 24.4533 174.017 24.24C174.123 24.24 174.23 24.24 174.337 24.24C174.443 24.24 174.603 24.2133 174.817 24.16C174.923 24.16 175.057 24.16 175.217 24.16C175.43 24.16 175.59 24.1867 175.697 24.24H186.977C187.777 24.24 188.31 24.24 188.577 24.24C188.843 24.24 189.083 24.2667 189.297 24.32L191.777 24.4C192.417 24.4533 192.87 24.5067 193.137 24.56C193.457 24.6133 193.697 24.8 193.857 25.12L194.497 27.36V32.64C195.777 30.5067 198.097 28.2667 201.457 25.92C202.843 24.9067 204.203 24.2933 205.537 24.08C206.87 23.8667 207.99 23.6533 208.897 23.44C209.537 23.28 210.07 23.3867 210.497 23.76C210.923 24.08 211.137 24.5867 211.137 25.28C211.137 31.9467 210.977 36.6133 210.657 39.28C210.337 41.8933 209.75 43.1733 208.897 43.12C207.937 43.0667 206.897 42.9333 205.777 42.72C204.71 42.4533 203.457 42.32 202.017 42.32C199.83 42.32 197.99 42.9067 196.497 44.08C195.057 45.2 194.337 46.6133 194.337 48.32V68.32C194.337 68.5867 194.283 68.7467 194.177 68.8C194.123 68.8533 194.097 68.9867 194.097 69.2C194.043 69.4133 193.91 69.52 193.697 69.52C193.75 69.52 193.67 69.5733 193.457 69.68L193.057 69.84C190.977 69.84 189.003 69.92 187.137 70.08H184.177ZM220.035 15.68L219.555 15.44C219.555 15.3333 219.502 15.28 219.395 15.28C219.235 15.28 219.128 15.3067 219.075 15.36C219.022 15.4133 218.915 15.44 218.755 15.44L218.035 15.6L217.475 15.44C217.315 15.44 217.208 15.4133 217.155 15.36C217.102 15.3067 216.995 15.28 216.835 15.28L214.995 15.04L214.435 14.8H214.035C214.035 14.9067 213.982 14.96 213.875 14.96C213.502 14.96 213.262 14.9333 213.155 14.88C213.102 14.8267 212.968 14.8 212.755 14.8C212.328 14.5333 212.035 14.1067 211.875 13.52C211.822 13.4133 211.795 13.3067 211.795 13.2C211.795 13.04 211.768 12.9333 211.715 12.88C211.662 12.8267 211.635 12.7733 211.635 12.72C211.635 12.6133 211.608 12.5333 211.555 12.48V4.88C211.608 4.66667 211.635 4.34667 211.635 3.92V1.84C211.635 1.14667 211.582 0.666669 211.475 0.4V0.240002C211.475 0.186669 211.715 0.133336 212.195 0.0800037C212.675 0.0266679 213.128 0 213.555 0C213.982 0 214.248 0 214.355 0C214.515 0 214.622 0.0266679 214.675 0.0800037H215.795L217.395 0.240002L218.915 0.72C219.288 0.773336 219.982 0.853337 220.995 0.960002C222.008 1.06667 222.622 1.12 222.835 1.12C223.102 1.12 223.608 1.2 224.355 1.36C225.155 1.52 225.662 1.57334 225.875 1.52C226.142 1.46667 226.408 1.57333 226.675 1.84C226.942 2.05333 227.182 2.16 227.395 2.16C228.355 2 229.342 2.13334 230.355 2.56C230.942 2.77333 231.448 2.96 231.875 3.12C232.302 3.22667 232.542 3.49333 232.595 3.92L232.675 6.4C232.728 7.94667 232.835 9.22667 232.995 10.24C233.208 11.2 233.208 12.5333 232.995 14.24L232.435 14.8L225.635 15.44C225.208 15.44 224.622 15.4667 223.875 15.52C223.182 15.52 222.755 15.5467 222.595 15.6C222.382 15.6533 222.168 15.68 221.955 15.68C221.742 15.68 221.502 15.68 221.235 15.68H220.035ZM228.675 70.16L226.755 69.92L223.075 69.52L221.955 69.6H219.155C219.102 69.3867 218.942 69.28 218.675 69.28L217.555 69.36C217.182 69.4133 216.808 69.4667 216.435 69.52C216.115 69.5733 215.875 69.6 215.715 69.6C215.608 69.4933 215.422 69.4133 215.155 69.36H214.755C214.755 69.3067 214.702 69.28 214.595 69.28L214.355 69.36L214.275 69.44C213.528 69.44 213.022 69.2267 212.755 68.8C212.542 68.4267 212.382 67.92 212.275 67.28C212.168 66.5867 212.115 65.5733 212.115 64.24C212.168 63.8667 212.168 63.44 212.115 62.96C212.115 62.48 212.062 61.7067 211.955 60.64L211.715 57.36V34.72C211.715 33.8133 211.688 32.9333 211.635 32.08C211.635 31.2267 211.582 30.1867 211.475 28.96C211.422 28.48 211.342 28.0533 211.235 27.68C211.182 27.6267 211.155 27.44 211.155 27.12C211.262 24.9867 211.715 23.5733 212.515 22.88C213.368 22.1333 214.968 21.76 217.315 21.76C217.315 21.76 217.475 21.7067 217.795 21.6C217.955 21.5467 218.142 21.52 218.355 21.52H218.435C218.488 21.52 218.542 21.5467 218.595 21.6C219.075 21.6 219.368 21.6533 219.475 21.76H219.795C220.008 21.76 220.195 21.68 220.355 21.52L226.355 21.6C226.568 21.6 226.808 21.6 227.075 21.6C227.342 21.5467 227.662 21.4933 228.035 21.44C228.355 21.3867 229.048 21.36 230.115 21.36C232.568 21.36 233.795 21.7867 233.795 22.64V34.96C233.795 36.7733 233.768 38.8 233.715 41.04C233.662 43.28 233.608 45.3867 233.555 47.36C233.502 49.3333 233.422 50.88 233.315 52L233.075 55.28C232.968 57.0933 232.888 58.6667 232.835 60C232.782 61.3333 232.728 62.4267 232.675 63.28C232.622 63.3333 232.595 63.4667 232.595 63.68C232.595 63.84 232.595 64.2933 232.595 65.04C232.595 66.48 232.408 67.6533 232.035 68.56C231.662 69.4133 231.155 69.84 230.515 69.84L228.675 70.16ZM261.137 71.44C259.163 71.44 257.137 71.3067 255.057 71.04C252.977 70.8267 251.03 70.5333 249.217 70.16C247.723 69.7867 246.443 69.3333 245.377 68.8C244.31 68.2667 243.323 67.52 242.417 66.56C241.563 65.6 240.63 64.3467 239.617 62.8H238.737L238.657 61.52C238.603 61.52 238.55 61.52 238.497 61.52C238.497 61.4667 238.443 61.44 238.337 61.44L237.697 60C235.403 55.6267 234.363 50.9333 234.577 45.92C234.843 40.7467 235.91 36.4533 237.777 33.04C239.697 29.5733 242.737 26.4533 246.897 23.68C248.07 22.9867 249.19 22.5333 250.257 22.32C251.323 22.1067 252.363 21.8933 253.377 21.68C254.763 21.68 256.283 21.7067 257.937 21.76C259.59 21.8133 261.243 21.84 262.897 21.84H263.217C263.323 21.84 263.377 21.8667 263.377 21.92C263.643 21.8667 264.043 21.84 264.577 21.84C265.11 21.84 265.643 21.8667 266.177 21.92C270.283 22.24 273.777 23.6533 276.657 26.16C278.523 27.8133 280.123 29.8133 281.457 32.16C282.79 34.5067 283.803 37.0667 284.497 39.84C285.19 42.6133 285.483 45.4133 285.377 48.24C285.323 50.32 285.003 52.2667 284.417 54.08C283.883 55.8933 283.323 57.7333 282.737 59.6C282.203 61.36 281.323 63.0133 280.097 64.56C278.87 66.1067 277.483 67.3867 275.937 68.4L274.177 69.52C274.123 69.5733 274.097 69.5467 274.097 69.44C274.097 69.3867 273.963 69.4933 273.697 69.76C273.59 69.8667 273.457 69.92 273.297 69.92C273.083 70.08 272.603 70.16 271.857 70.16H271.377C270.15 70.5333 268.897 70.9333 267.617 71.36C266.337 71.84 265.243 71.8667 264.337 71.44C264.017 71.28 263.697 71.2267 263.377 71.28C263.11 71.3867 262.923 71.44 262.817 71.44H261.137ZM260.977 61.92C261.297 61.92 261.617 61.8933 261.937 61.84C262.31 61.7867 262.523 61.76 262.577 61.76L263.937 58.8C263.99 58.64 264.043 58.48 264.097 58.32C264.15 58.1067 264.177 57.8933 264.177 57.68L264.737 56.72V54.96C265.003 54.48 265.19 54 265.297 53.52C265.403 52.9867 265.563 52.08 265.777 50.8V49.44L265.857 48L264.417 37.12C264.097 34.56 263.35 33.1733 262.177 32.96C261.59 32.8533 261.217 32.7467 261.057 32.64C260.897 32.5333 260.63 32.4533 260.257 32.4C260.097 32.3467 259.83 32.2667 259.457 32.16C259.083 32.0533 258.71 32.16 258.337 32.48C257.75 33.44 257.243 34.6933 256.817 36.24C256.443 37.7867 256.257 39.2533 256.257 40.64V43.04C256.257 43.52 256.257 44.4533 256.257 45.84C256.257 47.2267 256.31 48.6933 256.417 50.24C256.523 51.7333 256.71 52.9867 256.977 54C257.243 54.8533 257.403 55.4133 257.457 55.68C257.51 55.9467 257.537 56.1867 257.537 56.4C257.537 58.4267 258.23 59.9733 259.617 61.04C259.617 61.6267 260.07 61.92 260.977 61.92ZM298.561 70.08C295.895 70.08 293.815 70 292.321 69.84C290.828 69.68 289.521 69.4133 288.401 69.04C288.081 69.04 287.868 68.9067 287.761 68.64C287.548 68.16 287.441 67.6267 287.441 67.04L286.561 53.52C286.455 52.0267 286.375 50.64 286.321 49.36C286.268 48.08 286.215 46.6933 286.161 45.2C286.161 43.6533 286.161 41.84 286.161 39.76V37.44L286.241 34.08L286.401 30.08L286.561 27.12C286.561 26.2133 286.561 25.6533 286.561 25.44C286.561 25.1733 286.588 24.96 286.641 24.8C286.641 24.64 286.748 24.56 286.961 24.56C287.441 24.56 287.921 24.4533 288.401 24.24C288.508 24.24 288.615 24.24 288.721 24.24C288.828 24.24 288.988 24.2133 289.201 24.16C289.308 24.16 289.441 24.16 289.601 24.16C289.815 24.16 289.975 24.1867 290.081 24.24H301.361C302.161 24.24 302.695 24.24 302.961 24.24C303.228 24.24 303.468 24.2667 303.681 24.32L306.161 24.4C306.801 24.4533 307.255 24.5067 307.521 24.56C307.841 24.6133 308.081 24.8 308.241 25.12L308.881 27.36V32.64C310.161 30.5067 312.481 28.2667 315.841 25.92C317.228 24.9067 318.588 24.2933 319.921 24.08C321.255 23.8667 322.375 23.6533 323.281 23.44C323.921 23.28 324.455 23.3867 324.881 23.76C325.308 24.08 325.521 24.5867 325.521 25.28C325.521 31.9467 325.361 36.6133 325.041 39.28C324.721 41.8933 324.135 43.1733 323.281 43.12C322.321 43.0667 321.281 42.9333 320.161 42.72C319.095 42.4533 317.841 42.32 316.401 42.32C314.215 42.32 312.375 42.9067 310.881 44.08C309.441 45.2 308.721 46.6133 308.721 48.32V68.32C308.721 68.5867 308.668 68.7467 308.561 68.8C308.508 68.8533 308.481 68.9867 308.481 69.2C308.428 69.4133 308.295 69.52 308.081 69.52C308.135 69.52 308.055 69.5733 307.841 69.68L307.441 69.84C305.361 69.84 303.388 69.92 301.521 70.08H298.561ZM333.348 70.24L332.228 70.08L330.708 69.6C329.961 69.4933 329.241 69.3333 328.548 69.12C327.855 68.9067 327.215 68.7733 326.628 68.72C326.361 68.6133 326.095 68.5067 325.828 68.4C325.561 68.2933 325.321 68.24 325.108 68.24C325.001 68.1333 324.841 68.0267 324.628 67.92C324.468 67.76 324.361 67.6533 324.308 67.6L322.708 58V57.36C322.708 56.72 322.868 56.4 323.188 56.4C324.841 56.9333 326.228 57.3867 327.348 57.76C328.468 58.08 329.775 58.24 331.268 58.24C332.121 58.24 332.681 58.24 332.948 58.24C333.215 58.24 333.401 58.2667 333.508 58.32C334.415 58.32 335.215 58.2133 335.908 58C336.601 57.7867 337.135 57.6 337.508 57.44C337.935 57.28 338.148 56.9333 338.148 56.4C338.148 55.5467 337.961 54.88 337.588 54.4C337.215 53.92 336.468 53.3867 335.348 52.8L333.108 51.84C332.788 51.84 332.681 51.7333 332.788 51.52C332.948 51.2533 332.735 51.0133 332.148 50.8C332.148 50.7467 332.121 50.6933 332.068 50.64L331.988 50.56C331.828 50.5067 331.641 50.4267 331.428 50.32C331.268 50.16 331.028 50.0267 330.708 49.92L330.228 49.76C330.388 49.76 330.468 49.7333 330.468 49.68C330.468 49.52 330.388 49.44 330.228 49.44C330.175 49.44 330.068 49.36 329.908 49.2C329.801 49.04 329.615 48.9333 329.348 48.88C329.081 48.72 328.868 48.56 328.708 48.4C328.548 48.1867 328.388 48.0533 328.228 48C327.855 47.68 327.668 47.3867 327.668 47.12V46.56C326.335 46.56 325.241 45.2 324.388 42.48C324.068 41.2 323.775 40.1067 323.508 39.2C323.295 38.24 323.188 37.4133 323.188 36.72C323.188 32.6667 324.868 29.3867 328.228 26.88C331.588 24.32 336.335 22.7733 342.468 22.24C344.655 22.08 346.948 21.9467 349.348 21.84C351.748 21.7333 354.015 21.68 356.148 21.68C356.521 21.7867 356.841 21.8933 357.108 22C357.375 22.1067 357.615 22.16 357.828 22.16C358.735 22.2133 359.241 22.4533 359.348 22.88C359.455 23.3067 359.615 23.8933 359.828 24.64C359.935 25.0667 360.015 25.8933 360.068 27.12C360.121 28.3467 360.201 29.9733 360.308 32C360.468 32.0533 360.548 32.16 360.548 32.32C360.548 32.64 359.988 33.0133 358.868 33.44C358.495 33.4933 358.095 33.5733 357.668 33.68C357.241 33.7333 356.841 33.76 356.468 33.76L354.868 34C353.695 34.16 352.575 34.24 351.508 34.24C350.441 34.24 349.455 34.6933 348.548 35.6C347.961 36.24 347.668 36.88 347.668 37.52C347.668 38.1067 347.988 38.5333 348.628 38.8C348.948 39.0133 349.428 39.28 350.068 39.6C350.708 39.8667 351.535 40.24 352.548 40.72C356.975 42.7467 360.095 46 361.908 50.48C362.121 51.0133 362.281 51.6 362.388 52.24C362.495 52.88 362.548 53.5733 362.548 54.32C362.548 55.76 362.361 57.04 361.988 58.16C361.135 60.9333 358.761 63.68 354.868 66.4C351.508 68.7467 347.988 69.9733 344.308 70.08L333.348 70.24ZM11.8399 148.28C11.5733 148.28 11.3333 148.253 11.1199 148.2C10.9066 148.2 10.6933 148.2 10.4799 148.2H6.87993L3.35993 147.32L3.19993 146.76C3.09327 146.76 3.03993 146.493 3.03993 145.96C2.9866 145.053 2.93327 144.147 2.87993 143.24C2.87993 142.333 2.87993 141.373 2.87993 140.36C2.87993 139.613 2.85327 138.947 2.79993 138.36C2.79993 137.773 2.77327 137.293 2.71993 136.92C2.71993 136.12 2.71993 135.427 2.71993 134.84C2.71993 134.253 2.69327 133.773 2.63993 133.4V130.68C2.37327 128.28 2.1866 125.613 2.07993 122.68C2.0266 119.747 2.0266 116.947 2.07993 114.28L2.23993 106.2C2.29327 105.773 2.31993 105.187 2.31993 104.44C2.31993 103.693 2.31993 102.893 2.31993 102.04C2.31993 101.08 2.31993 100.253 2.31993 99.56C2.31993 98.8667 2.29327 98.3333 2.23993 97.96C2.07993 96.7333 2.3466 95.9067 3.03993 95.48C3.73327 95.0533 4.71993 94.84 5.99993 94.84C6.69327 94.84 7.19993 94.84 7.51993 94.84C7.89327 94.7867 8.31993 94.76 8.79993 94.76C9.33327 94.7067 10.1333 94.68 11.1999 94.68L13.0399 94.6C14.5333 94.4933 15.7599 94.4133 16.7199 94.36C17.7333 94.2533 18.4266 94.2 18.7999 94.2C19.5999 94.2 20.2666 94.2 20.7999 94.2C21.3333 94.2 21.7599 94.3333 22.0799 94.6C22.2933 94.76 22.6133 95.1333 23.0399 95.72C23.5199 96.3067 23.8133 96.68 23.9199 96.84C24.2933 97.2667 24.5066 97.48 24.5599 97.48C24.6133 97.4267 24.7999 97.64 25.1199 98.12C25.5999 98.8133 25.9999 99.48 26.3199 100.12C26.6933 100.707 27.0399 101.16 27.3599 101.48L38.1599 111.8L40.7999 114.2C40.7999 113.507 40.7999 112.867 40.7999 112.28C40.7999 111.64 40.8266 111.133 40.8799 110.76V103.48L41.1199 97.88C41.1733 97.6133 41.1999 97.4267 41.1999 97.32C41.2533 97.16 41.2799 97.0533 41.2799 97C41.2799 96.8933 41.3599 96.76 41.5199 96.6C41.5733 96.5467 41.6533 96.52 41.7599 96.52C42.3999 95.88 43.0399 95.48 43.6799 95.32C44.1599 95.16 44.5866 95.08 44.9599 95.08H50.3999C50.6133 95.1333 50.9066 95.16 51.2799 95.16C51.7066 95.16 52.1866 95.16 52.7199 95.16C53.1466 95.16 53.2266 95.16 52.9599 95.16C52.7466 95.16 52.5066 95.1867 52.2399 95.24C51.9733 95.24 51.9733 95.2667 52.2399 95.32H58.1599C59.5466 95.32 60.5066 95.5333 61.0399 95.96C61.5733 96.3333 61.8399 97.2133 61.8399 98.6L61.7599 99.4L61.6799 100.76C61.5733 100.92 61.5199 101.32 61.5199 101.96V103.56L61.7599 104.44V106.84C61.7066 107.267 61.6799 107.88 61.6799 108.68C61.6799 109.48 61.6799 110.413 61.6799 111.48V117.32C61.6266 118.013 61.5733 118.867 61.5199 119.88C61.5199 120.84 61.5199 121.907 61.5199 123.08V142.84L61.1999 146.04C61.0399 147.053 60.5866 147.747 59.8399 148.12L58.5599 148.2L57.1999 148.12H46.0799C45.0666 148.173 44.1866 148.067 43.4399 147.8C42.6933 147.48 42.0266 147.133 41.4399 146.76L27.8399 133.8C27.8399 133.747 27.6533 133.533 27.2799 133.16C26.9066 132.787 26.4799 132.36 25.9999 131.88C25.5733 131.4 25.2266 131.027 24.9599 130.76C24.9066 130.653 24.8266 130.547 24.7199 130.44C24.6666 130.333 24.6133 130.253 24.5599 130.2C24.5066 130.2 24.4533 130.2 24.3999 130.2C24.3999 130.147 24.3733 130.12 24.3199 130.12C23.7866 130.12 23.5199 130.307 23.5199 130.68V132.44C23.4666 132.707 23.4399 133.08 23.4399 133.56C23.4399 133.987 23.4399 134.493 23.4399 135.08V141.24C23.3866 141.56 23.3333 141.907 23.2799 142.28C23.2266 142.653 23.1999 143.053 23.1999 143.48V146.28L23.3599 146.76C23.3599 146.867 23.2799 147 23.1199 147.16C23.0133 147.32 22.8799 147.4 22.7199 147.4C22.5066 147.56 22.1333 147.587 21.5999 147.48C20.5866 147.533 19.7066 147.613 18.9599 147.72C18.2666 147.827 17.7066 147.907 17.2799 147.96C16.7999 148.013 16.1599 148.067 15.3599 148.12C14.5599 148.173 13.8133 148.2 13.1199 148.2C12.4266 148.253 11.9999 148.28 11.8399 148.28ZM86.7806 100.36C86.9939 100.36 87.2339 100.387 87.5006 100.44C87.7672 100.44 88.0872 100.467 88.4606 100.52C88.5672 100.52 88.7539 100.547 89.0206 100.6C89.2872 100.6 89.5806 100.6 89.9006 100.6C91.0206 100.6 93.0739 101.053 96.0606 101.96H96.5406C96.9139 101.96 97.2072 102.04 97.4206 102.2C97.4739 102.253 97.5272 102.333 97.5806 102.44C97.6339 102.493 97.6872 102.52 97.7406 102.52C98.0072 102.52 98.1672 102.6 98.2206 102.76L99.7406 104.04C102.354 106.28 104.327 109.347 105.661 113.24C106.887 116.813 107.501 120.547 107.501 124.44L106.861 125.96L85.4206 126.36L83.1006 126.44L83.1806 128.52L83.5006 130.44L84.2206 132.36L86.3006 134.2C86.8872 134.68 87.7139 135.08 88.7806 135.4C89.9006 135.72 91.0472 135.88 92.2206 135.88H92.6206C93.5272 135.88 94.6472 135.693 95.9806 135.32C97.3139 134.893 98.7272 134.493 100.221 134.12L104.701 133L105.661 134.2L107.101 144.36L106.221 145.8C103.767 146.973 101.554 147.88 99.5806 148.52C97.6072 149.16 95.7672 149.587 94.0606 149.8C92.5672 149.96 91.2606 150.093 90.1406 150.2C89.0739 150.36 88.0606 150.44 87.1006 150.44C85.5006 150.44 84.0606 150.28 82.7806 149.96C81.5006 149.64 80.1672 149.4 78.7806 149.24C76.8072 149.027 74.9406 148.36 73.1806 147.24C69.4472 144.36 66.7006 141.187 64.9406 137.72C63.2339 134.2 62.3272 130.013 62.2206 125.16C62.1139 119.667 63.1806 114.867 65.4206 110.76L65.8206 109.4C66.0339 109.293 66.1406 109.213 66.1406 109.16C66.1939 109.053 66.2472 109 66.3006 109L66.4606 108.68L66.9406 108.36C68.8072 104.84 71.8206 102.44 75.9806 101.16C78.4872 100.627 82.0872 100.36 86.7806 100.36ZM86.7806 110.04C86.6206 110.04 86.4339 110.067 86.2206 110.12C86.0072 110.12 85.8472 110.253 85.7406 110.52C85.6339 110.84 85.3939 111.053 85.0206 111.16C84.6472 111.267 84.3806 111.933 84.2206 113.16C84.0606 114.493 83.9006 115.533 83.7406 116.28C83.6339 117.027 83.8472 117.4 84.3806 117.4L89.6606 117.32L89.4206 114.92L89.1806 113.4L88.8606 111.72C88.8606 111.507 88.8072 111.347 88.7006 111.24C88.6472 111.133 88.5939 110.973 88.5406 110.76L87.7406 110.2C87.4206 110.093 87.1006 110.04 86.7806 110.04ZM122.541 149C122.221 149 121.901 148.947 121.581 148.84C121.315 148.733 120.995 148.68 120.621 148.68C120.355 148.68 120.061 148.707 119.741 148.76C119.421 148.813 119.128 148.733 118.861 148.52C118.808 148.467 118.755 148.44 118.701 148.44C118.701 148.493 118.701 148.52 118.701 148.52H118.301C117.875 148.307 117.661 148.093 117.661 147.88L112.861 132.6C112.381 131.053 111.821 129.133 111.181 126.84C110.541 124.547 109.795 122.093 108.941 119.48C108.088 116.867 107.048 114.307 105.821 111.8C105.768 111.747 105.741 111.56 105.741 111.24L105.501 110.28C105.341 109.853 105.261 109.267 105.261 108.52C105.261 108.147 105.181 107.72 105.021 107.24C104.861 106.707 104.835 106.173 104.941 105.64C105.101 105.107 105.608 104.68 106.461 104.36L107.981 103.72L113.421 102.44C113.475 102.44 113.555 102.44 113.661 102.44C113.821 102.387 113.928 102.387 113.981 102.44C114.088 102.493 114.141 102.44 114.141 102.28C114.141 102.12 114.168 102.04 114.221 102.04C114.381 102.04 114.461 102.04 114.461 102.04L114.541 101.96C114.701 101.907 114.835 101.88 114.941 101.88C115.048 101.88 115.128 101.853 115.181 101.8L115.581 101.64L116.941 101.56L121.101 100.76C122.115 100.44 122.888 100.493 123.421 100.92C123.955 101.293 124.355 101.8 124.621 102.44C124.941 103.08 125.181 103.613 125.341 104.04L126.461 107.16C126.835 108.12 127.208 109.24 127.581 110.52C127.955 111.747 128.275 112.84 128.541 113.8C128.808 114.76 128.915 115.347 128.861 115.56C128.861 115.72 128.888 115.827 128.941 115.88C128.941 116.2 128.968 116.413 129.021 116.52C129.288 116.68 129.475 116.973 129.581 117.4C129.688 117.773 129.795 118.067 129.901 118.28C130.008 118.387 130.088 118.6 130.141 118.92C130.195 119.187 130.248 119.453 130.301 119.72L131.181 121.64L132.461 125.88L132.861 126.84L133.581 128.04C133.581 127.987 133.688 127.747 133.901 127.32C134.115 126.893 134.328 126.467 134.541 126.04C134.755 125.56 134.861 125.267 134.861 125.16L135.661 121.96L136.381 119.56C136.488 119.293 136.541 119.053 136.541 118.84C136.541 118.573 136.568 118.333 136.621 118.12L136.861 117.08L137.021 116.04C137.128 115.507 137.288 115.08 137.501 114.76C137.715 114.387 137.928 113.773 138.141 112.92C139.261 108.92 140.088 105.907 140.621 103.88C141.155 101.853 141.928 100.973 142.941 101.24L145.821 101.4L150.941 101.88C151.155 101.88 151.395 101.987 151.661 102.2C151.981 102.36 152.221 102.413 152.381 102.36L154.461 102.6C155.261 102.653 155.928 103.053 156.461 103.8C156.995 104.547 157.101 105.267 156.781 105.96C156.781 106.44 156.675 107.347 156.461 108.68C156.408 108.893 156.328 109.08 156.221 109.24C156.115 109.4 156.061 109.533 156.061 109.64C156.008 109.747 155.981 109.933 155.981 110.2C155.608 111.373 155.101 113 154.461 115.08C153.875 117.107 153.235 119.32 152.541 121.72C151.848 124.067 151.181 126.36 150.541 128.6C149.955 130.787 149.448 132.653 149.021 134.2L145.501 147.88C145.501 148.04 145.288 148.253 144.861 148.52H144.381C144.168 148.52 143.981 148.52 143.821 148.52C143.715 148.52 143.608 148.573 143.501 148.68C143.288 148.893 142.995 149 142.621 149C142.355 149 142.061 149.027 141.741 149.08C141.421 149.187 141.128 149.16 140.861 149C140.488 148.947 140.141 148.893 139.821 148.84C139.555 148.84 139.315 148.84 139.101 148.84C137.715 148.947 135.955 149 133.821 149C131.741 149.053 129.661 149.053 127.581 149C125.555 149 123.875 149 122.541 149ZM177.49 100.36C177.703 100.36 177.943 100.387 178.21 100.44C178.477 100.44 178.797 100.467 179.17 100.52C179.277 100.52 179.463 100.547 179.73 100.6C179.997 100.6 180.29 100.6 180.61 100.6C181.73 100.6 183.783 101.053 186.77 101.96H187.25C187.623 101.96 187.917 102.04 188.13 102.2C188.183 102.253 188.237 102.333 188.29 102.44C188.343 102.493 188.397 102.52 188.45 102.52C188.717 102.52 188.877 102.6 188.93 102.76L190.45 104.04C193.063 106.28 195.037 109.347 196.37 113.24C197.597 116.813 198.21 120.547 198.21 124.44L197.57 125.96L176.13 126.36L173.81 126.44L173.89 128.52L174.21 130.44L174.93 132.36L177.01 134.2C177.597 134.68 178.423 135.08 179.49 135.4C180.61 135.72 181.757 135.88 182.93 135.88H183.33C184.237 135.88 185.357 135.693 186.69 135.32C188.023 134.893 189.437 134.493 190.93 134.12L195.41 133L196.37 134.2L197.81 144.36L196.93 145.8C194.477 146.973 192.263 147.88 190.29 148.52C188.317 149.16 186.477 149.587 184.77 149.8C183.277 149.96 181.97 150.093 180.85 150.2C179.783 150.36 178.77 150.44 177.81 150.44C176.21 150.44 174.77 150.28 173.49 149.96C172.21 149.64 170.877 149.4 169.49 149.24C167.517 149.027 165.65 148.36 163.89 147.24C160.157 144.36 157.41 141.187 155.65 137.72C153.943 134.2 153.037 130.013 152.93 125.16C152.823 119.667 153.89 114.867 156.13 110.76L156.53 109.4C156.743 109.293 156.85 109.213 156.85 109.16C156.903 109.053 156.957 109 157.01 109L157.17 108.68L157.65 108.36C159.517 104.84 162.53 102.44 166.69 101.16C169.197 100.627 172.797 100.36 177.49 100.36ZM177.49 110.04C177.33 110.04 177.143 110.067 176.93 110.12C176.717 110.12 176.557 110.253 176.45 110.52C176.343 110.84 176.103 111.053 175.73 111.16C175.357 111.267 175.09 111.933 174.93 113.16C174.77 114.493 174.61 115.533 174.45 116.28C174.343 117.027 174.557 117.4 175.09 117.4L180.37 117.32L180.13 114.92L179.89 113.4L179.57 111.72C179.57 111.507 179.517 111.347 179.41 111.24C179.357 111.133 179.303 110.973 179.25 110.76L178.45 110.2C178.13 110.093 177.81 110.04 177.49 110.04ZM211.602 149.08C208.935 149.08 206.855 149 205.362 148.84C203.868 148.68 202.562 148.413 201.442 148.04C201.122 148.04 200.908 147.907 200.802 147.64C200.588 147.16 200.482 146.627 200.482 146.04L199.602 132.52C199.495 131.027 199.415 129.64 199.362 128.36C199.308 127.08 199.255 125.693 199.202 124.2C199.202 122.653 199.202 120.84 199.202 118.76V116.44L199.282 113.08L199.442 109.08L199.602 106.12C199.602 105.213 199.602 104.653 199.602 104.44C199.602 104.173 199.628 103.96 199.682 103.8C199.682 103.64 199.788 103.56 200.002 103.56C200.482 103.56 200.962 103.453 201.442 103.24C201.548 103.24 201.655 103.24 201.762 103.24C201.868 103.24 202.028 103.213 202.242 103.16C202.348 103.16 202.482 103.16 202.642 103.16C202.855 103.16 203.015 103.187 203.122 103.24H214.402C215.202 103.24 215.735 103.24 216.002 103.24C216.268 103.24 216.508 103.267 216.722 103.32L219.202 103.4C219.842 103.453 220.295 103.507 220.562 103.56C220.882 103.613 221.122 103.8 221.282 104.12L221.922 106.36V111.64C223.202 109.507 225.522 107.267 228.882 104.92C230.268 103.907 231.628 103.293 232.962 103.08C234.295 102.867 235.415 102.653 236.322 102.44C236.962 102.28 237.495 102.387 237.922 102.76C238.348 103.08 238.562 103.587 238.562 104.28C238.562 110.947 238.402 115.613 238.082 118.28C237.762 120.893 237.175 122.173 236.322 122.12C235.362 122.067 234.322 121.933 233.202 121.72C232.135 121.453 230.882 121.32 229.442 121.32C227.255 121.32 225.415 121.907 223.922 123.08C222.482 124.2 221.762 125.613 221.762 127.32V147.32C221.762 147.587 221.708 147.747 221.602 147.8C221.548 147.853 221.522 147.987 221.522 148.2C221.468 148.413 221.335 148.52 221.122 148.52C221.175 148.52 221.095 148.573 220.882 148.68L220.482 148.84C218.402 148.84 216.428 148.92 214.562 149.08H211.602ZM281.365 147.96L258.565 147.8C257.658 147.8 257.072 147.213 256.805 146.04C256.538 145.08 256.405 144.013 256.405 142.84C256.405 141.027 256.378 139.133 256.325 137.16C256.325 135.187 256.298 132.947 256.245 130.44C256.192 127.827 256.138 125.16 256.085 122.44C256.032 119.667 256.005 116.813 256.005 113.88V96.28C256.005 95.8 256.218 95.3467 256.645 94.92C257.125 94.44 257.605 94.2 258.085 94.2L267.365 94.28C267.952 94.3333 268.645 94.36 269.445 94.36C270.245 94.36 271.765 94.36 274.005 94.36C276.032 94.36 277.818 94.36 279.365 94.36C280.912 94.36 282.245 94.3333 283.365 94.28L286.325 94.2C287.978 94.1467 289.445 94.12 290.725 94.12C292.058 94.0667 293.205 94.04 294.165 94.04C298.112 94.04 301.685 94.84 304.885 96.44C308.085 97.9867 310.618 100.2 312.485 103.08C315.098 107.133 316.405 112.12 316.405 118.04C316.405 123.64 315.765 128.333 314.485 132.12C313.205 135.853 311.232 138.893 308.565 141.24C305.845 143.587 302.298 145.32 297.925 146.44C293.552 147.507 288.032 148.013 281.365 147.96ZM282.085 125L281.525 138.68C281.792 138.733 282.218 138.76 282.805 138.76C283.125 138.76 283.472 138.76 283.845 138.76C284.272 138.707 284.752 138.653 285.285 138.6C285.445 138.547 285.578 138.52 285.685 138.52C285.845 138.467 286.005 138.413 286.165 138.36C286.218 138.307 286.298 138.28 286.405 138.28C286.565 138.28 286.672 138.253 286.725 138.2C287.578 137.453 288.352 136.12 289.045 134.2C289.738 132.28 290.458 129.48 291.205 125.8C291.418 124.467 291.552 123.133 291.605 121.8C291.712 120.467 291.765 119.133 291.765 117.8V116.28C291.765 114.733 291.632 113.133 291.365 111.48C291.098 109.827 290.752 108.333 290.325 107C289.898 105.667 289.445 104.733 288.965 104.2C288.112 103.453 287.365 103.08 286.725 103.08C286.032 103.08 285.418 103.133 284.885 103.24C284.352 103.347 283.978 103.427 283.765 103.48C283.712 103.533 283.392 103.667 282.805 103.88L282.725 113.48C282.725 113.907 282.672 114.44 282.565 115.08C282.512 115.72 282.458 116.467 282.405 117.32L282.325 119.24C282.272 121.853 282.192 123.773 282.085 125ZM326.06 94.68L325.58 94.44C325.58 94.3333 325.527 94.28 325.42 94.28C325.26 94.28 325.153 94.3067 325.1 94.36C325.047 94.4133 324.94 94.44 324.78 94.44L324.06 94.6L323.5 94.44C323.34 94.44 323.233 94.4133 323.18 94.36C323.127 94.3067 323.02 94.28 322.86 94.28L321.02 94.04L320.46 93.8H320.06C320.06 93.9067 320.007 93.96 319.9 93.96C319.527 93.96 319.287 93.9333 319.18 93.88C319.127 93.8267 318.993 93.8 318.78 93.8C318.353 93.5333 318.06 93.1067 317.9 92.52C317.847 92.4133 317.82 92.3067 317.82 92.2C317.82 92.04 317.793 91.9333 317.74 91.88C317.687 91.8267 317.66 91.7733 317.66 91.72C317.66 91.6133 317.633 91.5333 317.58 91.48V83.88C317.633 83.6667 317.66 83.3467 317.66 82.92V80.84C317.66 80.1467 317.607 79.6667 317.5 79.4V79.24C317.5 79.1867 317.74 79.1333 318.22 79.08C318.7 79.0267 319.153 79 319.58 79C320.007 79 320.273 79 320.38 79C320.54 79 320.647 79.0267 320.7 79.08H321.82L323.42 79.24L324.94 79.72C325.313 79.7733 326.007 79.8533 327.02 79.96C328.033 80.0667 328.647 80.12 328.86 80.12C329.127 80.12 329.633 80.2 330.38 80.36C331.18 80.52 331.687 80.5733 331.9 80.52C332.167 80.4667 332.433 80.5733 332.7 80.84C332.967 81.0533 333.207 81.16 333.42 81.16C334.38 81 335.367 81.1333 336.38 81.56C336.967 81.7733 337.473 81.96 337.9 82.12C338.327 82.2267 338.567 82.4933 338.62 82.92L338.7 85.4C338.753 86.9467 338.86 88.2267 339.02 89.24C339.233 90.2 339.233 91.5333 339.02 93.24L338.46 93.8L331.66 94.44C331.233 94.44 330.647 94.4667 329.9 94.52C329.207 94.52 328.78 94.5467 328.62 94.6C328.407 94.6533 328.193 94.68 327.98 94.68C327.767 94.68 327.527 94.68 327.26 94.68H326.06ZM334.7 149.16L332.78 148.92L329.1 148.52L327.98 148.6H325.18C325.127 148.387 324.967 148.28 324.7 148.28L323.58 148.36C323.207 148.413 322.833 148.467 322.46 148.52C322.14 148.573 321.9 148.6 321.74 148.6C321.633 148.493 321.447 148.413 321.18 148.36H320.78C320.78 148.307 320.727 148.28 320.62 148.28L320.38 148.36L320.3 148.44C319.553 148.44 319.047 148.227 318.78 147.8C318.567 147.427 318.407 146.92 318.3 146.28C318.193 145.587 318.14 144.573 318.14 143.24C318.193 142.867 318.193 142.44 318.14 141.96C318.14 141.48 318.087 140.707 317.98 139.64L317.74 136.36V113.72C317.74 112.813 317.713 111.933 317.66 111.08C317.66 110.227 317.607 109.187 317.5 107.96C317.447 107.48 317.367 107.053 317.26 106.68C317.207 106.627 317.18 106.44 317.18 106.12C317.287 103.987 317.74 102.573 318.54 101.88C319.393 101.133 320.993 100.76 323.34 100.76C323.34 100.76 323.5 100.707 323.82 100.6C323.98 100.547 324.167 100.52 324.38 100.52H324.46C324.513 100.52 324.567 100.547 324.62 100.6C325.1 100.6 325.393 100.653 325.5 100.76H325.82C326.033 100.76 326.22 100.68 326.38 100.52L332.38 100.6C332.593 100.6 332.833 100.6 333.1 100.6C333.367 100.547 333.687 100.493 334.06 100.44C334.38 100.387 335.073 100.36 336.14 100.36C338.593 100.36 339.82 100.787 339.82 101.64V113.96C339.82 115.773 339.793 117.8 339.74 120.04C339.687 122.28 339.633 124.387 339.58 126.36C339.527 128.333 339.447 129.88 339.34 131L339.1 134.28C338.993 136.093 338.913 137.667 338.86 139C338.807 140.333 338.753 141.427 338.7 142.28C338.647 142.333 338.62 142.467 338.62 142.68C338.62 142.84 338.62 143.293 338.62 144.04C338.62 145.48 338.433 146.653 338.06 147.56C337.687 148.413 337.18 148.84 336.54 148.84L334.7 149.16ZM365.162 100.36C365.375 100.36 365.615 100.387 365.882 100.44C366.148 100.44 366.468 100.467 366.842 100.52C366.948 100.52 367.135 100.547 367.402 100.6C367.668 100.6 367.962 100.6 368.282 100.6C369.402 100.6 371.455 101.053 374.442 101.96H374.922C375.295 101.96 375.588 102.04 375.802 102.2C375.855 102.253 375.908 102.333 375.962 102.44C376.015 102.493 376.068 102.52 376.122 102.52C376.388 102.52 376.548 102.6 376.602 102.76L378.122 104.04C380.735 106.28 382.708 109.347 384.042 113.24C385.268 116.813 385.882 120.547 385.882 124.44L385.242 125.96L363.802 126.36L361.482 126.44L361.562 128.52L361.882 130.44L362.602 132.36L364.682 134.2C365.268 134.68 366.095 135.08 367.162 135.4C368.282 135.72 369.428 135.88 370.602 135.88H371.002C371.908 135.88 373.028 135.693 374.362 135.32C375.695 134.893 377.108 134.493 378.602 134.12L383.082 133L384.042 134.2L385.482 144.36L384.602 145.8C382.148 146.973 379.935 147.88 377.962 148.52C375.988 149.16 374.148 149.587 372.442 149.8C370.948 149.96 369.642 150.093 368.522 150.2C367.455 150.36 366.442 150.44 365.482 150.44C363.882 150.44 362.442 150.28 361.162 149.96C359.882 149.64 358.548 149.4 357.162 149.24C355.188 149.027 353.322 148.36 351.562 147.24C347.828 144.36 345.082 141.187 343.322 137.72C341.615 134.2 340.708 130.013 340.602 125.16C340.495 119.667 341.562 114.867 343.802 110.76L344.202 109.4C344.415 109.293 344.522 109.213 344.522 109.16C344.575 109.053 344.628 109 344.682 109L344.842 108.68L345.322 108.36C347.188 104.84 350.202 102.44 354.362 101.16C356.868 100.627 360.468 100.36 365.162 100.36ZM365.162 110.04C365.002 110.04 364.815 110.067 364.602 110.12C364.388 110.12 364.228 110.253 364.122 110.52C364.015 110.84 363.775 111.053 363.402 111.16C363.028 111.267 362.762 111.933 362.602 113.16C362.442 114.493 362.282 115.533 362.122 116.28C362.015 117.027 362.228 117.4 362.762 117.4L368.042 117.32L367.802 114.92L367.562 113.4L367.242 111.72C367.242 111.507 367.188 111.347 367.082 111.24C367.028 111.133 366.975 110.973 366.922 110.76L366.122 110.2C365.802 110.093 365.482 110.04 365.162 110.04Z" fill="white"/>
</svg>
